<svg width="239" height="224" viewBox="0 0 239 224" fill="none" xmlns="http://www.w3.org/2000/svg">
<rect width="240" height="224" fill="#EFBDD9"/>
<path d="M118.994 106.994C118.994 106.994 119.954 69.7741 97.5901 47.4098C75.2258 25.0456 38.006 26.006 38.006 26.006C38.006 26.006 37.0457 63.2256 59.41 85.5899C81.7743 107.954 118.994 106.994 118.994 106.994Z" fill="white"/>
<path d="M118.452 106.994C118.452 106.994 117.491 69.7741 139.856 47.4098C162.22 25.0456 199.44 26.006 199.44 26.006C199.44 26.006 200.4 63.2256 178.036 85.5899C155.672 107.954 118.452 106.994 118.452 106.994Z" fill="white"/>
<path d="M118.994 107.006C118.994 107.006 119.954 144.226 97.5901 166.59C75.2258 188.955 38.006 187.994 38.006 187.994C38.006 187.994 37.0457 150.775 59.41 128.41C81.7743 106.046 118.994 107.006 118.994 107.006Z" fill="white"/>
<path d="M118.452 107.006C118.452 107.006 117.491 144.226 139.856 166.59C162.22 188.955 199.44 187.994 199.44 187.994C199.44 187.994 200.4 150.775 178.036 128.41C155.672 106.046 118.452 107.006 118.452 107.006Z" fill="white"/>
</svg>
