<svg width="138" height="138" viewBox="0 0 138 138" fill="none" xmlns="http://www.w3.org/2000/svg">
<path d="M102.476 19.5115C101.862 19.2355 101.428 19.1199 101.176 19.1647C100.915 19.2116 100.612 19.532 100.265 20.1258L96.1848 27.1211C95.8593 27.6791 95.7317 28.0918 95.8021 28.3593C95.8695 28.6319 96.1831 28.9588 96.7428 29.3402L96.5726 29.632L92.1266 27.0385L92.2968 26.7468C92.8932 27.0535 93.3375 27.1857 93.6297 27.1435C93.9168 27.0983 94.2126 26.8146 94.5172 26.2924L98.9248 18.7366C99.0263 18.5625 99.0788 18.4079 99.0822 18.2727C99.0775 18.1396 98.9828 18.002 98.7981 17.8599C98.6893 17.7759 98.5724 17.694 98.4474 17.6142C98.3173 17.5315 98.0731 17.3856 97.7147 17.1765C96.3172 16.3613 95.3056 15.9256 94.6797 15.8692C94.0539 15.8129 93.2344 16.1239 92.2213 16.8022L91.822 16.5693L94.18 14.2913L102.642 19.2274L102.476 19.5115Z" fill="#333333"/>
<path d="M89.1663 16.752C88.8287 17.882 88.186 18.7291 87.2381 19.2934C86.2828 19.8616 85.2402 19.9769 84.1102 19.6393C82.9858 19.3035 82.1648 18.6562 81.6471 17.6974C81.1295 16.7387 81.0538 15.6461 81.4202 14.4195C81.7578 13.2895 82.409 12.414 83.3738 11.793C84.3387 11.172 85.3889 11.0311 86.5246 11.3704C87.6149 11.6961 88.4181 12.3721 88.9341 13.3983C89.4502 14.4246 89.5276 15.5425 89.1663 16.752ZM84.5013 19.1995C84.9499 19.3335 85.383 19.3021 85.8006 19.1052C86.5228 18.7581 87.073 17.9514 87.4513 16.685C87.7532 15.6743 87.8077 14.6638 87.6146 13.6536C87.4159 12.6417 86.9105 12.0145 86.0985 11.7719C85.4625 11.5819 84.8868 11.7285 84.3714 12.2116C83.8503 12.693 83.4481 13.4079 83.1648 14.3562C82.8714 15.3386 82.8135 16.3295 82.9912 17.3289C83.1689 18.3283 83.6723 18.9518 84.5013 19.1995Z" fill="#333333"/>
<path d="M77.9786 9.97782C77.4313 9.97194 77.0623 10.0311 76.8715 10.1554C76.6802 10.2855 76.5614 10.5865 76.5153 11.0584L76.1251 15.0486C76.0679 15.6325 76.0833 16.0538 76.1712 16.3125C76.2525 16.5765 76.4377 16.7227 76.7267 16.7509C76.7857 16.7567 76.8662 16.7556 76.9682 16.7478C77.0637 16.7452 77.1657 16.7373 77.2742 16.7241L77.2457 17.0161C76.8979 17.1011 76.541 17.1883 76.175 17.2776C75.809 17.3668 75.5556 17.4314 75.4147 17.4712C75.1089 17.5544 74.7927 17.6515 74.4663 17.7625C74.425 17.7585 74.4028 17.7414 74.3998 17.7113C74.3909 17.6807 74.391 17.6182 74.4003 17.5238L74.5422 16.0728C74.1133 16.5609 73.7105 16.9353 73.3337 17.1962C72.9509 17.4565 72.5708 17.5682 72.1933 17.5313C71.8925 17.5019 71.6567 17.3865 71.4858 17.1852C71.3144 16.9898 71.2419 16.7564 71.2684 16.4851C71.2921 16.2433 71.3857 16.047 71.5493 15.8963C71.707 15.745 71.895 15.68 72.1133 15.7013C72.3374 15.7232 72.5544 15.8487 72.7642 16.0776C72.9682 16.306 73.135 16.4265 73.2648 16.4392C73.4712 16.4594 73.7413 16.3161 74.075 16.0093C74.4081 15.7084 74.592 15.381 74.6266 15.0271L75.0168 11.0369C75.0664 10.5297 74.983 10.1642 74.7667 9.94061C74.5498 9.7229 74.1665 9.59311 73.6168 9.55127L73.6454 9.2593L78.0072 9.68585L77.9786 9.97782Z" fill="#333333"/>
<path d="M64.6158 17.6559C63.7835 17.73 63.0287 17.5058 62.3514 16.983C61.6746 16.4662 61.2892 15.6795 61.195 14.6228L66.8176 14.1217C66.6365 12.7575 66.2377 11.7875 65.6211 11.2117C65.0046 10.636 64.3126 10.3823 63.5452 10.4507C62.9254 10.506 62.4174 10.7149 62.0214 11.0774C61.6253 11.44 61.2738 11.9354 60.9668 12.5637L60.6474 12.485C60.8226 11.7138 61.2154 10.9797 61.8256 10.2827C62.4299 9.58624 63.2132 9.19514 64.1754 9.10938C65.2851 9.01046 66.1814 9.35303 66.8641 10.1371C67.5409 10.9216 67.928 11.8599 68.0253 12.952C68.1311 14.1385 67.8711 15.194 67.2455 16.1184C66.6198 17.0429 65.7433 17.5554 64.6158 17.6559ZM65.0717 16.9637C65.7447 16.9037 66.2317 16.5598 66.5327 15.9321C66.6932 15.5965 66.7932 15.183 66.8327 14.6916L63.0961 15.0246C63.2136 15.6091 63.365 16.0389 63.5501 16.3139C63.8857 16.8076 64.3929 17.0242 65.0717 16.9637Z" fill="#333333"/>
<path d="M55.3975 10.5501C54.9767 10.7459 54.7129 10.9228 54.6061 11.081C54.4414 11.3231 54.4465 11.6867 54.6213 12.1717L56.1798 16.4953C56.3285 16.9079 56.4817 17.1582 56.6395 17.2463C56.7916 17.3363 56.9931 17.3361 57.244 17.2457C57.3611 17.2035 57.4483 17.1657 57.5056 17.1325C57.5573 17.1012 57.6172 17.0576 57.6852 17.0016L57.7907 17.2943L57.2609 17.712C57.0696 17.8629 56.76 18.1225 56.3322 18.491C55.9043 18.8594 55.6764 19.0486 55.6486 19.0587C55.6207 19.0687 55.5989 19.0608 55.5833 19.0349C55.5677 19.0091 55.5458 18.9571 55.5177 18.8791L55.1107 17.7501C54.7396 18.4508 54.3875 18.9683 54.0544 19.3025C53.7234 19.6424 53.346 19.8887 52.9222 20.0414C52.348 20.2484 51.8205 20.218 51.3397 19.9504C51.0849 19.8028 50.8337 19.5689 50.586 19.2488C50.3241 19.8156 50.0761 20.2547 49.8418 20.5659C49.4367 21.1025 48.9582 21.4703 48.4063 21.6692C47.5086 21.9928 46.7777 21.8436 46.2133 21.2218C45.8918 20.8715 45.5702 20.2504 45.2487 19.3583L43.9977 15.8877C43.855 15.4919 43.6711 15.2526 43.446 15.17C43.2174 15.0949 42.8664 15.1174 42.3932 15.2376L42.3148 15.0202L46.0865 13.6607L46.1709 13.8948C45.7019 14.1143 45.4193 14.3264 45.323 14.5312C45.2212 14.738 45.2536 15.0728 45.4204 15.5355L46.7197 19.1399C46.9146 19.6807 47.1169 20.0583 47.3264 20.2725C47.6975 20.6553 48.1841 20.7382 48.7862 20.5212C49.1486 20.3905 49.465 20.1411 49.7354 19.7727C49.8914 19.559 50.0647 19.2445 50.2553 18.8293L48.7118 14.5475C48.549 14.0959 48.3474 13.7812 48.1069 13.6033C47.8608 13.4274 47.4783 13.4235 46.9593 13.5917L46.8809 13.3743L50.7195 11.9906L50.7979 12.2081C50.2924 12.4659 50.0013 12.7157 49.9247 12.9575C49.848 13.1993 49.9434 13.691 50.2106 14.4325L51.0547 16.7741C51.3642 17.6327 51.633 18.2036 51.861 18.4868C52.242 18.9668 52.7307 19.0993 53.3273 18.8843C53.6674 18.7617 53.9677 18.5463 54.2283 18.2382C54.4909 17.9357 54.6934 17.5886 54.8358 17.1971L53.1869 12.6226C53.0341 12.1989 52.8562 11.9323 52.6529 11.8229C52.4441 11.7155 52.0906 11.7484 51.5924 11.9217L51.514 11.7042L55.3191 10.3326L55.3975 10.5501Z" fill="#333333"/>
<path d="M38.0397 31.8634C38.2075 32.0552 38.285 32.2788 38.2721 32.5341C38.2593 32.7894 38.1547 33.0029 37.9584 33.1746C37.7666 33.3424 37.5433 33.4157 37.2886 33.3945C37.0332 33.3816 36.8197 33.2771 36.648 33.0808C36.4802 32.889 36.405 32.6635 36.4223 32.4043C36.4391 32.1534 36.5433 31.944 36.7351 31.7763C36.9314 31.6046 37.155 31.5271 37.4058 31.5439C37.6606 31.5651 37.8719 31.6716 38.0397 31.8634ZM31.5037 22.6637C31.0654 23.1258 30.8346 23.4695 30.8111 23.6947C30.7916 23.9244 31.0101 24.3002 31.4666 24.8221L34.2586 28.0136C34.5122 28.3035 34.7078 28.4867 34.8455 28.5631C35.0724 28.6875 35.2929 28.656 35.507 28.4687C35.5561 28.4258 35.6013 28.3784 35.6425 28.3265C35.6793 28.2786 35.7819 28.1258 35.9503 27.8683L36.1318 28.0757L35.926 28.4211C35.3678 29.3582 34.9914 30.026 34.7968 30.4246C34.7188 30.5874 34.6619 30.6844 34.6262 30.7156C34.59 30.6922 34.5562 30.6627 34.525 30.627L30.3225 25.823C29.8777 25.3145 29.5384 25.0482 29.3049 25.0242C29.0668 25.0041 28.7158 25.1655 28.2519 25.5083L28.088 25.3209L31.3398 22.4763L31.5037 22.6637Z" fill="#333333"/>
<path d="M24.2084 31.8296C23.7963 31.7019 23.4177 31.6947 23.0725 31.808C22.7284 31.9296 22.4282 32.1535 22.172 32.4798C21.7767 32.9831 21.6893 33.6078 21.9099 34.3537C22.1314 35.1079 22.6896 35.8364 23.5845 36.5391C24.4422 37.2126 25.2295 37.5295 25.9464 37.4897C26.6598 37.4545 27.2086 37.1923 27.5929 36.7029C27.8638 36.3579 28.0036 35.9591 28.0125 35.5064C28.026 35.0574 27.9303 34.7524 27.7252 34.5913L24.2084 31.8296ZM21.7804 26.3286C21.4643 26.7887 21.3398 27.1392 21.4067 27.3802C21.47 27.6258 21.6718 27.8822 22.0121 28.1494L28.7239 33.4202C29.0782 33.6984 29.339 33.8316 29.5064 33.8199C29.6749 33.8166 29.8524 33.696 30.0391 33.4583C30.0794 33.407 30.1155 33.3563 30.1474 33.306C30.1757 33.2604 30.2158 33.1901 30.2677 33.0953L30.4984 33.2764L30.1935 34.1108C30.1799 34.1378 29.9729 34.7325 29.5724 35.895C29.5541 35.9183 29.5296 35.9254 29.499 35.9165C29.4694 35.9158 29.4406 35.9045 29.4126 35.8825L28.4688 35.1413C28.5348 35.6905 28.5509 36.1402 28.517 36.4904C28.4486 37.1149 28.2406 37.6485 27.8928 38.0913C27.3877 38.7345 26.679 39.0709 25.7666 39.1004C24.8553 39.1383 23.9242 38.7839 22.9733 38.0372C22.0411 37.3051 21.4147 36.3611 21.0942 35.2052C20.7701 34.0539 20.9392 33.0564 21.6017 32.2128C21.8067 31.9518 22.0169 31.7513 22.2322 31.6115C22.5643 31.39 22.9597 31.256 23.4184 31.2092L21.1322 29.4139C20.6614 29.0442 20.312 28.8942 20.084 28.9638C19.856 29.0334 19.5203 29.3123 19.0767 29.8004L18.832 29.6082L21.5497 26.1474L21.7804 26.3286Z" fill="#333333"/>
<path d="M19.0916 41.2454L18.9614 41.5083C18.2955 41.3304 17.7493 41.2648 17.3227 41.3114C16.5438 41.3884 15.9767 41.7854 15.6215 42.5023C15.4242 42.9005 15.3778 43.2678 15.4823 43.604C15.5896 43.9482 15.8185 44.2071 16.1689 44.3808C16.392 44.4913 16.6399 44.5315 16.9128 44.5013C17.1857 44.4712 17.5033 44.3375 17.8655 44.1003L18.8173 43.4608C19.4915 42.9813 20.0827 42.6757 20.5911 42.544C21.0995 42.4123 21.5954 42.4662 22.0786 42.7057C22.6733 43.0004 23.0566 43.4549 23.2285 44.0691C23.4003 44.6834 23.327 45.3118 23.0086 45.9543C22.8692 46.2358 22.6635 46.5175 22.3915 46.7994C22.1169 47.0866 21.969 47.2515 21.948 47.294C21.9006 47.3895 21.8797 47.4652 21.8852 47.5208C21.8907 47.5764 21.9148 47.6347 21.9574 47.6955L21.8627 47.8866L19.6127 46.8412L19.7351 46.5943C20.3028 46.7433 20.7747 46.7986 21.151 46.7601C21.8451 46.694 22.3461 46.3503 22.654 45.729C22.8382 45.3573 22.8687 45.0087 22.7457 44.6831C22.6226 44.3575 22.407 44.1185 22.099 43.9658C21.6105 43.7238 20.9935 43.8744 20.248 44.4178L19.1615 45.189C17.985 46.0148 16.9879 46.2251 16.1701 45.8199C15.5435 45.5094 15.1482 45.0192 14.9841 44.3492C14.8174 43.6846 14.9222 42.9726 15.2984 42.2132C15.4563 41.8946 15.6883 41.5598 15.9945 41.2089C16.3007 40.8579 16.4722 40.6453 16.5091 40.5709C16.5406 40.5072 16.5444 40.4396 16.5203 40.3681C16.5015 40.2993 16.4668 40.2358 16.4162 40.1777L16.5188 39.9706L19.0916 41.2454Z" fill="#333333"/>
<path d="M19.402 54.5194L13.8958 53.0876C13.5057 52.9862 13.179 52.9594 12.9155 53.0073C12.4244 53.1061 12.105 53.4395 11.9574 54.0073C11.8559 54.3973 11.8858 54.8123 12.047 55.2523C12.1352 55.5018 12.2771 55.7683 12.4728 56.0519L17.1876 57.2779C17.6292 57.3927 17.9412 57.382 18.1236 57.2457C18.306 57.1094 18.4787 56.7869 18.6416 56.2782L18.9255 56.352L18.2029 59.1309L12.146 57.556C11.756 57.4545 11.4685 57.4533 11.2836 57.5521C11.1029 57.6583 10.9623 57.9401 10.8617 58.3977L10.6208 58.3351C10.6167 57.9972 10.6112 57.7478 10.6041 57.5867C10.6027 57.4271 10.5902 57.1575 10.5664 56.7778C10.5536 56.6153 10.5153 56.2563 10.4515 55.7008C10.459 55.6721 10.4778 55.6586 10.5079 55.6604C10.5324 55.6606 10.5618 55.6652 10.5962 55.6741L11.9814 56.0343C11.6182 55.5235 11.3665 55.0784 11.2264 54.699C11.009 54.122 10.9712 53.561 11.1129 53.0162C11.2426 52.5171 11.5427 52.0931 12.0132 51.7439C12.4794 51.3875 13.1255 51.3167 13.9514 51.5314L18.4166 52.6925C18.8755 52.8118 19.2077 52.7941 19.4133 52.6394C19.5436 52.5385 19.6825 52.2869 19.8301 51.8843L20.071 51.947L19.402 54.5194Z" fill="#333333"/>
<path d="M9.23348 62.8948C9.27917 63.3567 9.35901 63.6642 9.47301 63.8172C9.64703 64.0527 9.99182 64.1681 10.5074 64.1634L15.1032 64.1216C15.5417 64.1176 15.8286 64.0557 15.9638 63.936C16.0991 63.8221 16.1655 63.6319 16.1631 63.3652C16.1619 63.2407 16.1552 63.146 16.1427 63.0809C16.1303 63.0217 16.1089 62.9508 16.0785 62.8681L16.3897 62.8653L16.6088 63.5034C16.688 63.7338 16.8307 64.1118 17.037 64.6374C17.2433 65.163 17.3466 65.4406 17.3468 65.4702C17.3471 65.4999 17.3324 65.5178 17.3029 65.524C17.2733 65.5302 17.217 65.5336 17.134 65.5344L15.934 65.5453C16.4727 66.1272 16.8447 66.6305 17.0501 67.0554C17.2614 67.4802 17.3691 67.9178 17.3732 68.3681C17.3787 68.9785 17.1758 69.4664 16.7642 69.8316C16.5407 70.0233 16.237 70.1832 15.8529 70.3111C16.3014 70.7456 16.6337 71.1248 16.85 71.4488C17.2226 72.0085 17.4115 72.5817 17.4169 73.1683C17.4256 74.1225 17.0432 74.7631 16.2698 75.0901C15.8329 75.2778 15.1404 75.376 14.1922 75.3846L10.5031 75.4182C10.0824 75.422 9.7958 75.5165 9.64339 75.7016C9.49696 75.8926 9.40225 76.2313 9.35926 76.7177L9.12814 76.7198L9.09166 72.7107L9.34056 72.7084C9.39266 73.2236 9.49944 73.5604 9.66091 73.719C9.82242 73.8835 10.1491 73.9635 10.641 73.959L14.4723 73.9241C15.0471 73.9189 15.4703 73.8528 15.7417 73.7259C16.2257 73.5022 16.4648 73.0703 16.4589 72.4303C16.4554 72.0451 16.3245 71.664 16.0663 71.2871C15.9161 71.0691 15.6766 70.8017 15.3478 70.4846L10.7964 70.526C10.3164 70.5304 9.95271 70.6167 9.70533 70.7849C9.45799 70.959 9.32791 71.3188 9.3151 71.8641L9.08397 71.8662L9.04685 67.786L9.27797 67.7839C9.3542 68.3463 9.49377 68.7036 9.69666 68.8558C9.89955 69.0081 10.3951 69.0806 11.1833 69.0734L13.6723 69.0508C14.5849 69.0425 15.2125 68.9775 15.5552 68.8559C16.1342 68.655 16.4208 68.2375 16.415 67.6034C16.4117 67.2419 16.3077 66.8873 16.1031 66.5395C15.9043 66.1916 15.6437 65.8858 15.3213 65.622L10.4588 65.6663C10.0085 65.6704 9.69803 65.7502 9.52758 65.9059C9.35717 66.0675 9.27141 66.412 9.27028 66.9395L9.03916 66.9416L9.00235 62.8969L9.23348 62.8948Z" fill="#333333"/>
<path d="M21.7384 89.8586C21.9124 90.2547 21.9854 90.6564 21.9572 91.0637C21.9386 91.3308 21.873 91.6088 21.7605 91.8977L24.3486 90.7606C24.6795 90.6152 24.8907 90.4771 24.9822 90.3463C25.076 90.2209 25.0621 90.0199 24.9405 89.7432C24.9119 89.678 24.8841 89.6223 24.8572 89.5758C24.8304 89.5294 24.7718 89.4256 24.6817 89.2646L24.9502 89.1466L25.4144 89.7388C25.5868 89.9544 25.7619 90.1688 25.9397 90.3819C26.1175 90.5951 26.2795 90.7796 26.4256 90.9355C26.4909 91.0104 26.6056 91.1315 26.7698 91.2989L26.775 91.3549L25.9133 91.7141C25.6016 91.8445 25.2791 91.9798 24.9458 92.1198C24.6178 92.2574 24.2938 92.3965 23.9737 92.5372L17.3172 95.4424C16.9645 95.5974 16.7367 95.7493 16.6338 95.8981C16.5309 96.0469 16.5617 96.3084 16.7261 96.6828C16.7524 96.7425 16.7786 96.8022 16.8048 96.8619C16.8365 96.9192 16.8708 96.9753 16.9079 97.0302L16.6393 97.1482C16.6142 97.1204 16.3057 96.7866 15.7139 96.1469L14.6723 95.0801L14.7205 94.9909L15.7215 94.5511C15.2571 94.3927 14.9054 94.2332 14.6666 94.0728C14.2484 93.784 13.9249 93.3791 13.696 92.8582C13.2908 91.9358 13.3172 91.0309 13.7752 90.1435C14.2411 89.2591 14.9434 88.6107 15.8821 88.1983C17.0595 87.681 18.2189 87.5794 19.3602 87.8935C20.5094 88.2107 21.3022 88.8657 21.7384 89.8586ZM14.904 93.2208C15.09 93.644 15.3649 93.931 15.729 94.0818C16.093 94.2325 16.3862 94.2591 16.6087 94.1613L20.1002 92.6272C20.8055 92.3173 21.2185 91.9093 21.3392 91.4031C21.4677 90.9 21.4533 90.4694 21.296 90.1113C20.9956 89.4277 20.4581 89.0294 19.6835 88.9166C18.9144 88.8014 18.0876 88.9381 17.2032 89.3267C16.3297 89.7106 15.6393 90.2534 15.132 90.9553C14.6272 91.6626 14.5512 92.4178 14.904 93.2208Z" fill="#333333"/>
<path d="M21.6083 99.0839C22.5596 98.3867 23.5833 98.0992 24.6796 98.2216C25.7842 98.3451 26.6851 98.8825 27.3823 99.8338C28.0759 100.78 28.3398 101.792 28.1739 102.869C28.0079 103.946 27.4087 104.862 26.3762 105.619C25.425 106.316 24.3773 106.621 23.2332 106.534C22.0891 106.447 21.1667 105.925 20.4661 104.969C19.7934 104.051 19.5611 103.028 19.7691 101.898C19.9771 100.768 20.5902 99.8301 21.6083 99.0839ZM26.8049 99.9483C26.5281 99.5707 26.1639 99.3343 25.7121 99.2393C24.9268 99.0801 24.0012 99.3911 22.9352 100.172C22.0844 100.796 21.431 101.569 20.9752 102.491C20.5228 103.417 20.5472 104.223 21.0482 104.906C21.4406 105.441 21.988 105.672 22.6906 105.598C23.3966 105.529 24.1488 105.202 24.947 104.617C25.774 104.01 26.4182 103.255 26.8798 102.351C27.3414 101.447 27.3164 100.646 26.8049 99.9483Z" fill="#333333"/>
<path d="M26.6311 111.454C27.0701 111.791 27.4177 111.966 27.6739 111.978C27.9341 111.986 28.2322 111.811 28.5682 111.452L34.5006 105.108C34.7678 104.822 34.9282 104.603 34.9817 104.451C35.0652 104.188 34.9749 103.933 34.7109 103.686C34.6503 103.629 34.5771 103.573 34.4914 103.517C34.41 103.465 34.303 103.402 34.1705 103.327L34.3709 103.112C35.101 103.503 35.9987 103.953 37.064 104.463C37.0943 104.491 37.0994 104.52 37.0795 104.55C37.0638 104.584 37.0155 104.644 36.9346 104.731L29.6542 112.516C29.302 112.892 29.1382 113.198 29.1628 113.432C29.1915 113.661 29.3951 113.982 29.7736 114.392L29.6036 114.574L26.4611 111.635L26.6311 111.454Z" fill="#333333"/>
<path d="M35.7375 114.372C36.3695 113.377 37.2183 112.736 38.2838 112.451C39.3576 112.164 40.3923 112.336 41.388 112.968C42.3787 113.597 42.9929 114.443 43.2305 115.506C43.4681 116.57 43.2439 117.642 42.5579 118.723C41.9259 119.718 41.0613 120.384 39.964 120.719C38.8667 121.055 37.8177 120.905 36.8169 120.27C35.8562 119.66 35.267 118.791 35.0493 117.663C34.8317 116.535 35.061 115.438 35.7375 114.372ZM40.892 113.285C40.4967 113.034 40.0714 112.947 39.6161 113.023C38.8267 113.16 38.0779 113.787 37.3697 114.903C36.8044 115.794 36.4773 116.751 36.3885 117.776C36.3048 118.804 36.6206 119.545 37.3361 119.999C37.8965 120.355 38.4904 120.37 39.1178 120.045C39.7501 119.724 40.3314 119.145 40.8618 118.309C41.4112 117.444 41.7363 116.506 41.8369 115.496C41.9375 114.486 41.6226 113.749 40.892 113.285Z" fill="#333333"/>
<path d="M44.6628 123.933C45.1879 124.087 45.5591 124.13 45.7765 124.063C45.996 123.989 46.1921 123.732 46.3648 123.29L47.8249 119.557C48.0385 119.01 48.1383 118.6 48.124 118.328C48.1175 118.051 47.979 117.86 47.7086 117.755C47.6534 117.733 47.5756 117.712 47.4753 117.692C47.3827 117.669 47.2824 117.649 47.1744 117.632L47.2812 117.359C47.639 117.371 48.0061 117.384 48.3826 117.398C48.7591 117.411 49.0205 117.418 49.1669 117.418C49.4839 117.421 49.8145 117.414 50.1589 117.396C50.1975 117.411 50.2142 117.433 50.2089 117.463C50.2092 117.495 50.192 117.555 50.1575 117.643L49.6266 119.001C50.1719 118.648 50.6613 118.397 51.0949 118.248C51.534 118.102 51.9301 118.098 52.2834 118.236C52.5649 118.346 52.7605 118.521 52.8702 118.761C52.9821 118.996 52.9884 119.24 52.8891 119.494C52.8006 119.72 52.6572 119.884 52.4587 119.984C52.2658 120.087 52.0673 120.099 51.8631 120.019C51.6533 119.937 51.4786 119.757 51.3389 119.48C51.2047 119.205 51.0769 119.043 50.9554 118.996C50.7622 118.92 50.4634 118.985 50.0589 119.189C49.6565 119.388 49.3906 119.653 49.2611 119.984L47.801 123.718C47.6154 124.193 47.5963 124.567 47.7437 124.841C47.8933 125.11 48.2269 125.339 48.7445 125.529L48.6376 125.802L44.556 124.206L44.6628 123.933Z" fill="#333333"/>
<path d="M63.4185 126.389L63.7114 126.405C63.8128 127.086 63.9697 127.614 64.1819 127.986C64.5621 128.671 65.1517 129.033 65.9507 129.074C66.3946 129.097 66.7501 128.994 67.017 128.764C67.2903 128.529 67.4369 128.216 67.457 127.826C67.4698 127.577 67.4082 127.334 67.2721 127.095C67.136 126.857 66.8871 126.618 66.5255 126.38L65.5604 125.761C64.8526 125.333 64.3372 124.912 64.0143 124.497C63.6914 124.083 63.5439 123.607 63.5716 123.068C63.6057 122.405 63.8704 121.873 64.3659 121.471C64.8613 121.069 65.4671 120.887 66.1832 120.924C66.4969 120.94 66.8371 121.017 67.2039 121.154C67.5766 121.292 67.7866 121.362 67.834 121.365C67.9405 121.37 68.0182 121.359 68.0671 121.332C68.116 121.305 68.1598 121.26 68.1987 121.197L68.4118 121.208L68.3464 123.688L68.0712 123.674C67.9824 123.093 67.8456 122.638 67.6608 122.308C67.3243 121.698 66.8098 121.374 66.1174 121.339C65.7031 121.317 65.371 121.428 65.1211 121.67C64.8713 121.913 64.7375 122.205 64.7199 122.549C64.6919 123.093 65.0753 123.6 65.8701 124.068L67.0096 124.758C68.2349 125.51 68.8241 126.341 68.7772 127.253C68.7413 127.951 68.4485 128.509 67.8989 128.925C67.3552 129.343 66.6602 129.529 65.8138 129.486C65.4587 129.467 65.0593 129.388 64.6156 129.246C64.1719 129.105 63.9086 129.032 63.8257 129.027C63.7547 129.024 63.6912 129.047 63.6352 129.098C63.5795 129.142 63.535 129.199 63.5017 129.269L63.2709 129.257L63.4185 126.389Z" fill="#333333"/>
<path d="M73.9884 117.715C73.9574 117.462 74.0189 117.233 74.173 117.029C74.3271 116.825 74.5335 116.707 74.7923 116.676C75.0453 116.645 75.2712 116.709 75.47 116.87C75.674 117.024 75.7919 117.231 75.8237 117.489C75.8547 117.742 75.7903 117.971 75.6303 118.176C75.4755 118.374 75.2716 118.489 75.0186 118.52C74.7598 118.551 74.5314 118.49 74.3332 118.335C74.1344 118.174 74.0194 117.968 73.9884 117.715ZM74.2266 128.997C74.8488 128.861 75.2328 128.707 75.3788 128.533C75.524 128.354 75.5544 127.921 75.4699 127.233L74.9534 123.024C74.9065 122.641 74.8475 122.38 74.7765 122.239C74.6587 122.009 74.4586 121.911 74.1763 121.946C74.1116 121.954 74.0476 121.968 73.9843 121.987C73.9269 122.006 73.7562 122.075 73.4722 122.193L73.4387 121.92L73.8029 121.75C74.7912 121.288 75.4778 120.947 75.8627 120.727C76.0188 120.636 76.1203 120.588 76.1674 120.582C76.1842 120.622 76.1955 120.665 76.2013 120.712L76.9787 127.047C77.061 127.718 77.192 128.129 77.3718 128.28C77.5574 128.43 77.9384 128.494 78.5148 128.471L78.5451 128.718L74.2569 129.244L74.2266 128.997Z" fill="#333333"/>
<path d="M85.2891 118.705L85.4637 119.321L83.7191 119.815L85.099 124.746C85.2219 125.18 85.352 125.497 85.4891 125.698C85.7376 126.053 86.0613 126.174 86.4604 126.061C86.6657 126.002 86.8287 125.904 86.9494 125.765C87.0759 125.624 87.2061 125.421 87.3402 125.155L87.6159 125.28L87.5005 125.59C87.3172 126.073 87.0837 126.444 86.7999 126.704C86.5161 126.963 86.2202 127.136 85.9123 127.223C85.2395 127.414 84.6985 127.244 84.2893 126.713C84.066 126.426 83.8727 125.994 83.7093 125.418L82.2395 120.235L81.3073 120.499C81.2739 120.49 81.2463 120.48 81.2243 120.468C81.2081 120.454 81.1959 120.433 81.1878 120.404C81.1716 120.347 81.1709 120.301 81.1856 120.266C81.2044 120.224 81.2661 120.126 81.3706 119.973C81.6718 119.537 81.8797 119.194 81.9941 118.946C82.1127 118.691 82.3712 118.039 82.7697 116.989C82.8438 116.968 82.8882 116.962 82.9028 116.97C82.9231 116.977 82.9438 117.017 82.9648 117.091L83.5615 119.195L85.2891 118.705Z" fill="#333333"/>
<path d="M101.154 114.324C100.717 114.894 100.392 115.416 100.178 115.892C99.7692 116.808 99.7533 117.543 100.13 118.097C100.434 118.542 100.804 118.771 101.241 118.781C101.526 118.788 101.786 118.712 102.021 118.552C102.344 118.332 102.591 118.031 102.762 117.65C102.937 117.265 102.93 116.933 102.74 116.654L101.154 114.324ZM99.1673 119.494C98.6837 118.784 98.6353 117.949 99.0222 116.99C99.2728 116.39 99.9 115.378 100.904 113.957L100.478 113.332C100.138 112.832 99.8525 112.518 99.6212 112.389C99.2312 112.174 98.7741 112.245 98.2499 112.602C98 112.772 97.8058 112.997 97.6671 113.278C97.5318 113.564 97.5425 113.822 97.6993 114.052C97.7393 114.111 97.8199 114.203 97.9411 114.328C98.059 114.449 98.1313 114.528 98.1579 114.568C98.3447 114.842 98.3841 115.095 98.2762 115.326C98.2167 115.46 98.1159 115.575 97.9738 115.672C97.7534 115.822 97.536 115.866 97.3217 115.804C97.1041 115.737 96.9353 115.615 96.8152 115.439C96.5817 115.096 96.549 114.595 96.7168 113.936C96.8862 113.268 97.38 112.656 98.1981 112.099C99.1486 111.452 100.003 111.322 100.761 111.709C101.173 111.924 101.598 112.355 102.039 113.001L104.045 115.948C104.238 116.232 104.391 116.415 104.503 116.496C104.697 116.644 104.895 116.649 105.095 116.512C105.208 116.436 105.29 116.355 105.34 116.271C105.39 116.187 105.46 116.017 105.552 115.761L105.812 116.143C105.785 116.441 105.723 116.713 105.625 116.959C105.477 117.331 105.261 117.615 104.977 117.808C104.644 118.035 104.328 118.092 104.03 117.98C103.736 117.864 103.48 117.662 103.262 117.373C103.11 117.95 102.955 118.407 102.797 118.744C102.531 119.312 102.197 119.733 101.796 120.006C101.374 120.293 100.909 120.395 100.401 120.311C99.8885 120.222 99.4774 119.95 99.1673 119.494Z" fill="#333333"/>
<path d="M109.878 113.808C110.15 113.432 110.294 113.149 110.31 112.959C110.336 112.667 110.155 112.352 109.766 112.014L106.299 108.997C105.968 108.709 105.712 108.565 105.531 108.565C105.355 108.561 105.179 108.659 105.004 108.86C104.922 108.954 104.864 109.029 104.83 109.086C104.8 109.139 104.769 109.206 104.737 109.288L104.502 109.084L104.762 108.461C104.855 108.236 104.999 107.859 105.193 107.328C105.388 106.798 105.494 106.522 105.514 106.5C105.533 106.477 105.556 106.474 105.582 106.489C105.609 106.504 105.653 106.538 105.716 106.593L106.621 107.38C106.604 106.588 106.659 105.964 106.787 105.51C106.911 105.052 107.12 104.653 107.416 104.313C107.817 103.853 108.292 103.622 108.843 103.622C109.137 103.627 109.47 103.709 109.843 103.867C109.795 103.245 109.798 102.741 109.851 102.355C109.943 101.689 110.182 101.134 110.567 100.692C111.193 99.972 111.904 99.7462 112.7 100.014C113.152 100.164 113.735 100.549 114.45 101.172L117.234 103.593C117.551 103.87 117.828 103.989 118.065 103.952C118.301 103.906 118.597 103.715 118.952 103.38L119.126 103.531L116.494 106.556L116.306 106.393C116.609 105.972 116.753 105.65 116.737 105.424C116.725 105.194 116.534 104.917 116.163 104.594L113.272 102.079C112.838 101.702 112.478 101.471 112.191 101.386C111.68 101.232 111.215 101.397 110.795 101.88C110.542 102.17 110.387 102.542 110.33 102.996C110.298 103.258 110.3 103.617 110.336 104.073L113.769 107.06C114.132 107.375 114.461 107.552 114.758 107.59C115.058 107.624 115.394 107.441 115.766 107.041L115.94 107.193L113.262 110.271L113.087 110.12C113.403 109.648 113.536 109.288 113.485 109.04C113.434 108.791 113.111 108.408 112.516 107.891L110.639 106.257C109.95 105.658 109.437 105.29 109.1 105.154C108.534 104.92 108.042 105.043 107.626 105.521C107.389 105.794 107.231 106.128 107.154 106.524C107.072 106.916 107.064 107.318 107.13 107.729L110.799 110.921C111.139 111.217 111.424 111.363 111.655 111.36C111.889 111.352 112.182 111.151 112.533 110.757L112.707 110.908L110.052 113.96L109.878 113.808Z" fill="#333333"/>
<path d="M115.66 92.2185C116.03 91.4694 116.615 90.9418 117.414 90.636C118.208 90.3274 119.08 90.4082 120.031 90.8782L117.53 95.9389C118.789 96.4949 119.825 96.6597 120.638 96.4332C121.45 96.2068 122.027 95.7482 122.368 95.0575C122.644 94.4996 122.73 93.9572 122.627 93.4303C122.524 92.9033 122.284 92.3452 121.908 91.7559L122.141 91.5243C122.708 92.0755 123.13 92.7932 123.408 93.6771C123.687 94.5557 123.613 95.4281 123.185 96.2941C122.692 97.293 121.932 97.8796 120.908 98.054C119.885 98.2231 118.883 98.0648 117.9 97.5791C116.832 97.0513 116.066 96.2797 115.603 95.2641C115.14 94.2485 115.159 93.2333 115.66 92.2185ZM116.014 92.9682C115.714 93.5739 115.754 94.1688 116.133 94.7527C116.336 95.0645 116.637 95.3653 117.036 95.6549L118.698 92.2918C118.138 92.0876 117.692 91.993 117.361 92.0078C116.765 92.0371 116.316 92.3572 116.014 92.9682Z" fill="#333333"/>
<path d="M119.701 81.671L120.316 81.8473L119.817 83.5907L124.734 85.018C125.167 85.142 125.505 85.1989 125.749 85.1885C126.181 85.1643 126.454 84.9529 126.569 84.5541C126.627 84.349 126.63 84.1585 126.575 83.9826C126.522 83.801 126.418 83.5832 126.263 83.3291L126.515 83.1608L126.717 83.4222C127.031 83.8328 127.223 84.2269 127.294 84.6047C127.364 84.9824 127.356 85.3252 127.268 85.6328C127.075 86.3051 126.645 86.6752 125.978 86.7431C125.616 86.7811 125.147 86.7176 124.572 86.5528L119.393 85.0691L119.126 86.0006C119.101 86.0242 119.077 86.0421 119.055 86.0543C119.035 86.0608 119.011 86.0599 118.982 86.0518C118.925 86.0354 118.886 86.0118 118.864 85.9808C118.838 85.9426 118.787 85.8387 118.713 85.6694C118.5 85.1832 118.319 84.8261 118.169 84.5981C118.014 84.3627 117.596 83.7991 116.915 82.9072C116.936 82.8331 116.954 82.792 116.968 82.7839C116.985 82.7701 117.03 82.7738 117.104 82.795L119.206 83.3973L119.701 81.671Z" fill="#333333"/>
<path d="M128.946 74.9396C129.539 75.0179 130.063 75.3052 130.518 75.8016C130.973 76.2979 131.279 76.8076 131.437 77.3306L131.062 77.4516C130.82 76.8456 130.527 76.4125 130.185 76.1521C129.843 75.8859 129.549 75.7365 129.302 75.7039C129.22 75.6931 129.164 75.7125 129.133 75.7623C129.103 75.8121 129.084 75.8664 129.076 75.9251L129.06 76.5237C129.027 76.7705 128.918 76.9863 128.732 77.171C128.541 77.3549 128.292 77.4267 127.987 77.3864C127.752 77.3554 127.534 77.2399 127.333 77.0401C127.132 76.8402 127.057 76.5464 127.108 76.1586C127.157 75.7885 127.348 75.4759 127.68 75.2209C128.007 74.9651 128.429 74.8713 128.946 74.9396Z" fill="#333333"/>
<path d="M120.044 59.4597C119.908 58.7314 119.981 58.0698 120.263 57.475C120.537 56.8755 120.899 56.5341 121.347 56.4507C121.54 56.415 121.733 56.4484 121.926 56.5511C122.115 56.6548 122.235 56.8464 122.286 57.1261C122.324 57.3301 122.288 57.5237 122.177 57.707C122.066 57.8845 121.882 58.0331 121.627 58.1528L121.227 58.3356C120.933 58.4687 120.738 58.6404 120.645 58.8507C120.558 59.0657 120.544 59.3305 120.603 59.6452C120.726 60.3094 121.122 60.8176 121.79 61.1696C122.451 61.5169 123.263 61.6013 124.224 61.4227C125.104 61.2592 125.847 60.8619 126.453 60.2309C127.058 59.5941 127.281 58.8474 127.122 57.9909C127.009 57.3849 126.711 56.8828 126.227 56.4844C125.95 56.2586 125.532 56.0227 124.974 55.7768L125.077 55.5045C125.838 55.7067 126.457 55.9534 126.933 56.2447C127.845 56.8047 128.387 57.5479 128.559 58.4744C128.728 59.3833 128.519 60.254 127.932 61.0864C127.345 61.9187 126.437 62.4491 125.208 62.6775C124.002 62.9016 122.893 62.7127 121.883 62.1107C120.873 61.5087 120.26 60.625 120.044 59.4597Z" fill="#333333"/>
<path d="M122.483 51.4366C121.395 51.8913 120.332 51.9306 119.295 51.5547C118.25 51.1755 117.5 50.4418 117.046 49.3536C116.593 48.2709 116.574 47.2256 116.988 46.2177C117.402 45.2098 118.199 44.4591 119.38 43.9655C120.469 43.5109 121.559 43.4601 122.65 43.8132C123.742 44.1664 124.516 44.8898 124.973 45.9834C125.412 47.0333 125.398 48.083 124.931 49.1324C124.464 50.1819 123.648 50.9499 122.483 51.4366ZM117.634 49.3777C117.814 49.8097 118.113 50.1248 118.53 50.3232C119.256 50.6621 120.229 50.5768 121.448 50.0673C122.422 49.6606 123.238 49.0625 123.897 48.2732C124.554 47.4784 124.719 46.69 124.393 45.9081C124.137 45.2956 123.659 44.943 122.958 44.8503C122.256 44.752 121.448 44.8937 120.535 45.2753C119.589 45.6706 118.785 46.2535 118.125 47.0241C117.464 47.7948 117.3 48.5793 117.634 49.3777Z" fill="#333333"/>
<path d="M120.596 38.1872C120.31 37.8741 120.056 37.6942 119.834 37.6474C119.605 37.5992 119.267 37.7322 118.821 38.0465L115.138 40.6442C114.828 40.8629 114.631 41.0456 114.546 41.1926C114.427 41.4144 114.468 41.6682 114.67 41.9539C114.7 41.9975 114.735 42.0418 114.774 42.0868C114.81 42.127 114.856 42.1775 114.914 42.2385L114.66 42.4178C114.461 42.2603 113.98 41.8964 113.215 41.3262L112.508 40.8022C112.484 40.7683 112.483 40.7404 112.504 40.7185C112.521 40.6917 112.552 40.6629 112.595 40.6322L113.663 39.879C112.932 39.7272 112.401 39.5801 112.068 39.4375C111.564 39.2272 111.169 38.9186 110.882 38.5118C110.65 38.1824 110.532 37.8156 110.53 37.4111C110.529 36.6285 111.001 35.9041 111.945 35.238L115.338 32.8452C115.686 32.5992 115.889 32.3514 115.945 32.1016C116.001 31.8519 115.915 31.5606 115.687 31.2279L115.891 31.0844L118.079 34.1864L117.875 34.3298C117.577 34.0104 117.306 33.8318 117.062 33.7938C116.813 33.7593 116.441 33.9162 115.947 34.2646L112.845 36.4525C112.429 36.7462 112.14 37.0663 111.978 37.4125C111.811 37.7622 111.875 38.1453 112.168 38.5618C112.37 38.8475 112.672 39.0698 113.074 39.2286C113.301 39.3147 113.636 39.398 114.077 39.4784L118.145 36.6091C118.493 36.3631 118.674 36.12 118.685 35.8796C118.692 35.6427 118.583 35.3537 118.357 35.0127L118.56 34.8692L120.799 38.0438L120.596 38.1872Z" fill="#333333"/>
<path d="M110.423 29.2784L110.209 29.0782C110.57 28.4913 110.79 27.9868 110.867 27.5648C111.017 26.7965 110.799 26.1394 110.214 25.5936C109.889 25.2903 109.551 25.1406 109.199 25.1444C108.838 25.1484 108.525 25.2935 108.258 25.5794C108.088 25.7614 107.978 25.9874 107.929 26.2575C107.88 26.5276 107.917 26.8701 108.04 27.2852L108.38 28.3804C108.646 29.1637 108.769 29.8178 108.749 30.3426C108.73 30.8674 108.536 31.327 108.168 31.7213C107.715 32.2065 107.17 32.4434 106.532 32.4319C105.894 32.4204 105.313 32.1701 104.789 31.6808C104.559 31.4665 104.349 31.1887 104.157 30.8473C103.96 30.5019 103.845 30.313 103.81 30.2806C103.732 30.2078 103.665 30.1661 103.611 30.1554C103.556 30.1447 103.493 30.1511 103.423 30.1745L103.267 30.0289L104.913 28.1732L105.115 28.3612C104.809 28.8623 104.621 29.2987 104.55 29.6701C104.414 30.3541 104.6 30.9326 105.107 31.4057C105.41 31.6887 105.735 31.8179 106.082 31.7934C106.43 31.7688 106.72 31.6308 106.955 31.3795C107.327 30.9809 107.36 30.3466 107.053 29.4767L106.625 28.2146C106.172 26.8508 106.256 25.8352 106.879 25.168C107.356 24.6567 107.939 24.4185 108.628 24.4534C109.312 24.4842 109.964 24.7888 110.584 25.367C110.844 25.6096 111.098 25.9278 111.346 26.3218C111.595 26.7157 111.749 26.941 111.81 26.9976C111.862 27.0461 111.926 27.0691 112.001 27.0665C112.072 27.0682 112.143 27.0532 112.213 27.0214L112.382 27.1791L110.423 29.2784Z" fill="#333333"/>
<path d="M39.2405 17.3665C38.8081 17.7019 38.5557 17.9776 38.4835 18.1935C38.4144 18.4144 38.5084 18.724 38.7655 19.1224L40.9393 22.4912C41.2574 22.9841 41.5313 23.3047 41.7609 23.4528C41.9887 23.6091 42.2246 23.6085 42.4686 23.451C42.5184 23.4189 42.5808 23.368 42.6558 23.2985C42.729 23.2371 42.8041 23.1675 42.8808 23.0898L43.0399 23.3363C42.8203 23.619 42.5949 23.9091 42.3636 24.2065C42.1323 24.5038 41.9738 24.7119 41.8882 24.8306C41.7003 25.0859 41.5129 25.3584 41.3261 25.6482C41.2913 25.6707 41.2633 25.6711 41.2423 25.6495C41.2162 25.631 41.1775 25.5819 41.1261 25.5022L40.3356 24.2772C40.3029 24.9261 40.22 25.4698 40.0869 25.9084C39.9488 26.3501 39.7203 26.6739 39.4017 26.8795C39.1477 27.0434 38.8912 27.0996 38.6323 27.048C38.3765 27.0015 38.1747 26.8637 38.0269 26.6346C37.8952 26.4304 37.8466 26.2185 37.8811 25.9987C37.9106 25.7821 38.0175 25.6144 38.2018 25.4955C38.391 25.3734 38.6389 25.3369 38.9456 25.3858C39.2473 25.438 39.4529 25.4287 39.5625 25.358C39.7368 25.2456 39.8593 24.9655 39.9301 24.5178C40.0041 24.075 39.9447 23.7043 39.7519 23.4055L37.5781 20.0367C37.3018 19.6085 37.0094 19.374 36.7009 19.3332C36.3957 19.2974 36.0147 19.4339 35.5581 19.7427L35.399 19.4962L39.0815 17.12L39.2405 17.3665Z" fill="#333333"/>
<g clip-path="url(#clip0_843_486)">
<path d="M69.0002 83.025L66.8252 81.045C59.1002 74.04 54.0002 69.42 54.0002 63.75C54.0002 59.13 57.6302 55.5 62.2502 55.5C64.8602 55.5 67.3652 56.715 69.0002 58.635C70.6352 56.715 73.1402 55.5 75.7502 55.5C80.3702 55.5 84.0002 59.13 84.0002 63.75C84.0002 69.42 78.9002 74.04 71.1752 81.06L69.0002 83.025Z" fill="#333333"/>
</g>
<circle cx="69" cy="69" r="68.5" stroke="#333333"/>
<defs>
<clipPath id="clip0_843_486">
<rect width="36" height="36" fill="white" transform="translate(51 51)"/>
</clipPath>
</defs>
</svg>
