<svg width="102" height="102" viewBox="0 0 102 102" fill="none" xmlns="http://www.w3.org/2000/svg">
<path d="M76.7743 11.2815C76.2945 11.0659 75.9559 10.9756 75.7586 11.0105C75.555 11.0472 75.3179 11.2975 75.0473 11.7613L71.8597 17.2259C71.6054 17.6618 71.5058 17.9842 71.5607 18.1931C71.6134 18.4061 71.8583 18.6615 72.2956 18.9594L72.1626 19.1873L68.6895 17.1614L68.8225 16.9335C69.2884 17.1731 69.6354 17.2764 69.8637 17.2434C70.088 17.2081 70.3191 16.9864 70.557 16.5786L74.0001 10.6761C74.0794 10.5402 74.1204 10.4194 74.123 10.3137C74.1194 10.2098 74.0454 10.1023 73.9011 9.99132C73.8161 9.92567 73.7248 9.86169 73.6272 9.79937C73.5255 9.73472 73.3348 9.62075 73.0548 9.45746C71.9631 8.82064 71.1728 8.48023 70.684 8.43624C70.1951 8.39225 69.5549 8.63519 68.7635 9.16505L68.4516 8.9831L70.2936 7.20357L76.9038 11.0595L76.7743 11.2815Z" fill="#333333"/>
<path d="M66.2683 9.07771C66.0046 9.96045 65.5026 10.6222 64.7621 11.0629C64.0159 11.5068 63.2014 11.5969 62.3187 11.3332C61.4404 11.0708 60.799 10.5652 60.3946 9.81626C59.9902 9.06733 59.9311 8.21379 60.2173 7.25564C60.481 6.3729 60.9897 5.68898 61.7434 5.20386C62.4971 4.71875 63.3176 4.6087 64.2048 4.87372C65.0564 5.12814 65.6839 5.6562 66.087 6.4579C66.4901 7.25959 66.5506 8.13286 66.2683 9.07771ZM62.6242 10.9896C62.9747 11.0943 63.313 11.0697 63.6392 10.9159C64.2033 10.6448 64.6332 10.0146 64.9287 9.0254C65.1645 8.23581 65.2071 7.44645 65.0562 6.65732C64.901 5.86686 64.5062 5.37689 63.8719 5.1874C63.3751 5.03899 62.9253 5.15348 62.5227 5.53087C62.1156 5.90693 61.8014 6.46536 61.5802 7.20615C61.3509 7.97356 61.3057 8.74763 61.4445 9.52835C61.5834 10.3091 61.9766 10.7962 62.6242 10.9896Z" fill="#333333"/>
<path d="M57.4339 3.76809C57.0064 3.76349 56.7182 3.80973 56.5691 3.90679C56.4196 4.00847 56.3268 4.24361 56.2908 4.61221L55.986 7.72925C55.9414 8.1854 55.9534 8.51451 56.022 8.71659C56.0856 8.92283 56.2302 9.03699 56.456 9.05907C56.5021 9.06357 56.565 9.06275 56.6446 9.05658C56.7193 9.05458 56.7989 9.04841 56.8837 9.03809L56.8614 9.26617C56.5897 9.33264 56.3109 9.40073 56.025 9.47046C55.7391 9.54018 55.5411 9.5906 55.4311 9.6217C55.1922 9.68672 54.9452 9.76258 54.6902 9.84928C54.6579 9.84612 54.6406 9.8328 54.6383 9.80931C54.6313 9.78537 54.6314 9.73654 54.6386 9.66282L54.7495 8.52936C54.4145 8.91059 54.0998 9.20311 53.8054 9.4069C53.5064 9.61025 53.2095 9.6975 52.9146 9.66867C52.6796 9.64569 52.4954 9.55557 52.3619 9.39831C52.228 9.24567 52.1714 9.06337 52.1921 8.85142C52.2106 8.66251 52.2837 8.50918 52.4116 8.39143C52.5347 8.27323 52.6816 8.22247 52.8521 8.23914C53.0272 8.25626 53.1967 8.35424 53.3606 8.53308C53.5199 8.71147 53.6503 8.80562 53.7516 8.81553C53.9129 8.8313 54.1239 8.71936 54.3845 8.47971C54.6447 8.24467 54.7884 7.98892 54.8154 7.71246L55.1202 4.59542C55.159 4.19917 55.0939 3.9137 54.9249 3.73902C54.7554 3.56895 54.456 3.46757 54.0266 3.43488L54.0489 3.2068L57.4562 3.54001L57.4339 3.76809Z" fill="#333333"/>
<path d="M46.9021 9.76507C46.2519 9.82302 45.6622 9.64783 45.1332 9.23949C44.6045 8.83576 44.3034 8.22118 44.2298 7.39576L48.6221 7.00429C48.4806 5.93858 48.1691 5.18085 47.6874 4.7311C47.2058 4.28134 46.6652 4.08318 46.0658 4.13661C45.5816 4.17977 45.1848 4.34295 44.8754 4.62616C44.566 4.90938 44.2914 5.29639 44.0516 5.7872L43.8021 5.72577C43.939 5.12329 44.2457 4.54982 44.7224 4.00535C45.1945 3.4613 45.8064 3.15578 46.558 3.08879C47.4249 3.01152 48.125 3.27912 48.6584 3.89159C49.1871 4.50447 49.4895 5.23746 49.5655 6.09055C49.6481 7.01742 49.445 7.84193 48.9563 8.56409C48.4676 9.28625 47.7828 9.68657 46.9021 9.76507ZM47.2582 9.22438C47.7839 9.17753 48.1644 8.9089 48.3995 8.4185C48.5249 8.15634 48.603 7.83332 48.6339 7.44944L45.7149 7.7096C45.8067 8.16621 45.925 8.50194 46.0696 8.7168C46.3317 9.10245 46.7279 9.27165 47.2582 9.22438Z" fill="#333333"/>
<path d="M39.5752 4.24243C39.2465 4.39537 39.0405 4.53362 38.9571 4.65719C38.8284 4.84629 38.8323 5.13029 38.9689 5.5092L40.1864 8.88671C40.3025 9.209 40.4222 9.40453 40.5454 9.4733C40.6643 9.54365 40.8217 9.5435 41.0177 9.47285C41.1092 9.43988 41.1773 9.41041 41.222 9.38443C41.2625 9.36002 41.3092 9.32594 41.3623 9.28218L41.4448 9.51083L41.0309 9.83717C40.8815 9.95502 40.6396 10.1578 40.3054 10.4456C39.9711 10.7334 39.7931 10.8813 39.7714 10.8891C39.7496 10.897 39.7326 10.8908 39.7204 10.8706C39.7082 10.8504 39.6911 10.8098 39.6691 10.7488L39.3512 9.86687C39.0613 10.4143 38.7863 10.8185 38.5261 11.0796C38.2674 11.3451 37.9726 11.5375 37.6416 11.6568C37.193 11.8185 36.781 11.7948 36.4054 11.5857C36.2064 11.4704 36.0101 11.2877 35.8166 11.0376C35.6121 11.4804 35.4183 11.8234 35.2352 12.0665C34.9188 12.4857 34.545 12.773 34.1139 12.9284C33.4127 13.1812 32.8416 13.0647 32.4008 12.5789C32.1496 12.3053 31.8984 11.82 31.6473 11.1232L30.67 8.41205C30.5585 8.10282 30.4149 7.91593 30.2391 7.85136C30.0604 7.79271 29.7863 7.81033 29.4166 7.90422L29.3554 7.73437L32.3017 6.67233L32.3676 6.85525C32.0013 7.02667 31.7805 7.19238 31.7053 7.35236C31.6257 7.5139 31.6511 7.77542 31.7814 8.13691L32.7964 10.9526C32.9486 11.375 33.1066 11.67 33.2703 11.8373C33.5602 12.1364 33.9403 12.2011 34.4107 12.0316C34.6938 11.9295 34.9409 11.7346 35.1521 11.4469C35.274 11.2799 35.4094 11.0343 35.5583 10.71L34.3526 7.36513C34.2254 7.01235 34.0679 6.76648 33.88 6.62752C33.6878 6.49012 33.3889 6.48711 32.9836 6.61847L32.9223 6.44862L35.9209 5.36774L35.9822 5.5376C35.5872 5.739 35.3599 5.93415 35.3 6.12305C35.2401 6.31195 35.3146 6.69602 35.5234 7.27527L36.1828 9.10448C36.4245 9.77519 36.6345 10.2212 36.8126 10.4424C37.1102 10.8174 37.492 10.9209 37.958 10.7529C38.2237 10.6571 38.4583 10.4889 38.6619 10.2482C38.8671 10.0119 39.0252 9.74077 39.1365 9.43494L37.8484 5.86144C37.729 5.53044 37.59 5.3222 37.4312 5.23671C37.2681 5.1528 36.992 5.17852 36.6028 5.31389L36.5416 5.14403L39.514 4.07258L39.5752 4.24243Z" fill="#333333"/>
<path d="M25.8562 20.9852C25.9873 21.135 26.0478 21.3097 26.0377 21.5092C26.0277 21.7086 25.946 21.8754 25.7927 22.0095C25.6429 22.1406 25.4684 22.1979 25.2694 22.1813C25.0699 22.1712 24.9031 22.0896 24.769 21.9362C24.638 21.7864 24.5792 21.6102 24.5927 21.4077C24.6058 21.2118 24.6873 21.0482 24.8371 20.9172C24.9904 20.783 25.1651 20.7225 25.361 20.7356C25.5601 20.7522 25.7251 20.8354 25.8562 20.9852ZM20.7504 13.7987C20.408 14.1597 20.2277 14.4281 20.2094 14.6041C20.1941 14.7835 20.3648 15.0771 20.7215 15.4847L22.9024 17.9779C23.1006 18.2044 23.2534 18.3474 23.361 18.4071C23.5382 18.5043 23.7105 18.4797 23.8777 18.3334C23.9161 18.2998 23.9513 18.2628 23.9836 18.2223C24.0123 18.1849 24.0925 18.0655 24.224 17.8644L24.3658 18.0264L24.205 18.2962C23.769 19.0282 23.475 19.5499 23.3229 19.8613C23.2619 19.9885 23.2175 20.0642 23.1896 20.0886C23.1613 20.0703 23.135 20.0472 23.1106 20.0194L19.8277 16.2666C19.4802 15.8694 19.2152 15.6614 19.0327 15.6426C18.8468 15.6269 18.5726 15.753 18.2102 16.0208L18.0822 15.8744L20.6224 13.6523L20.7504 13.7987Z" fill="#333333"/>
<path d="M14.9869 21.0275C14.6649 20.9278 14.3691 20.9221 14.0995 21.0106C13.8307 21.1056 13.5962 21.2805 13.396 21.5354C13.0872 21.9286 13.019 22.4166 13.1913 22.9992C13.3643 23.5884 13.8004 24.1575 14.4995 24.7065C15.1694 25.2326 15.7845 25.4801 16.3445 25.449C16.9018 25.4216 17.3305 25.2167 17.6307 24.8344C17.8423 24.5649 17.9516 24.2534 17.9585 23.8998C17.9691 23.549 17.8942 23.3107 17.734 23.1849L14.9869 21.0275ZM13.0902 16.7303C12.8432 17.0897 12.7459 17.3635 12.7982 17.5517C12.8477 17.7436 13.0053 17.9439 13.2711 18.1527L18.5143 22.2701C18.791 22.4874 18.9947 22.5914 19.1255 22.5823C19.2571 22.5797 19.3958 22.4855 19.5416 22.2998C19.5731 22.2598 19.6013 22.2201 19.6262 22.1808C19.6483 22.1452 19.6796 22.0903 19.7202 22.0162L19.9004 22.1578L19.6623 22.8096C19.6516 22.8306 19.4899 23.2952 19.177 24.2033C19.1627 24.2215 19.1436 24.2271 19.1197 24.2201C19.0966 24.2195 19.0741 24.2107 19.0522 24.1936L18.3149 23.6146C18.3665 24.0436 18.3791 24.3949 18.3526 24.6684C18.2992 25.1562 18.1367 25.5731 17.865 25.919C17.4704 26.4215 16.9168 26.6842 16.2041 26.7073C15.4921 26.7369 14.7648 26.46 14.022 25.8767C13.2938 25.3048 12.8045 24.5674 12.5541 23.6644C12.3009 22.7651 12.433 21.9859 12.9506 21.3268C13.1107 21.1229 13.2748 20.9664 13.4431 20.8571C13.7025 20.6841 14.0114 20.5794 14.3697 20.5429L12.5837 19.1404C12.216 18.8516 11.9431 18.7344 11.765 18.7888C11.5869 18.8432 11.3246 19.061 10.9781 19.4423L10.7869 19.2922L12.9099 16.5887L13.0902 16.7303Z" fill="#333333"/>
<path d="M10.9353 28.4702L10.8335 28.6755C10.3133 28.5366 9.88666 28.4853 9.55345 28.5217C8.94496 28.5819 8.50197 28.892 8.22448 29.452C8.07032 29.7631 8.03408 30.05 8.11577 30.3127C8.19956 30.5815 8.37834 30.7838 8.65212 30.9194C8.82635 31.0058 9.02005 31.0372 9.23321 31.0136C9.44638 30.9901 9.69446 30.8857 9.97744 30.7004L10.721 30.2008C11.2476 29.8262 11.7095 29.5875 12.1066 29.4846C12.5038 29.3817 12.8911 29.4238 13.2686 29.6109C13.7332 29.8411 14.0326 30.1961 14.1668 30.676C14.3011 31.1558 14.2438 31.6467 13.9951 32.1487C13.8862 32.3685 13.7255 32.5886 13.513 32.8088C13.2985 33.0332 13.183 33.162 13.1666 33.1951C13.1296 33.2698 13.1132 33.3289 13.1175 33.3723C13.1218 33.4158 13.1406 33.4613 13.1739 33.5088L13.0999 33.6581L11.3423 32.8415L11.4379 32.6486C11.8814 32.765 12.2501 32.8082 12.5439 32.7781C13.0862 32.7265 13.4776 32.458 13.7181 31.9727C13.862 31.6823 13.8858 31.4099 13.7897 31.1556C13.6935 30.9013 13.5252 30.7145 13.2846 30.5953C12.9029 30.4062 12.4209 30.5239 11.8386 30.9483L10.9898 31.5508C10.0708 32.1959 9.29189 32.3602 8.65306 32.0437C8.16357 31.8011 7.85473 31.4182 7.72656 30.8948C7.59632 30.3756 7.67818 29.8194 7.97211 29.2262C8.09544 28.9773 8.2767 28.7158 8.51588 28.4416C8.75507 28.1675 8.88905 28.0014 8.91782 27.9433C8.94249 27.8935 8.9454 27.8407 8.92657 27.7849C8.91188 27.7311 8.88479 27.6815 8.84529 27.6361L8.92545 27.4743L10.9353 28.4702Z" fill="#333333"/>
<path d="M11.1414 38.9352L6.84003 37.8167C6.53536 37.7375 6.2801 37.7166 6.07426 37.7539C5.69062 37.8312 5.44114 38.0916 5.32579 38.5352C5.24657 38.8398 5.2699 39.164 5.3958 39.5077C5.4647 39.7026 5.57559 39.9108 5.72847 40.1323L9.41149 41.09C9.7565 41.1797 10.0002 41.1714 10.1427 41.0649C10.2852 40.9585 10.4201 40.7065 10.5473 40.3091L10.7691 40.3668L10.2047 42.5376L5.47317 41.3073C5.16849 41.228 4.94393 41.2271 4.79947 41.3043C4.65833 41.3872 4.54846 41.6074 4.46986 41.9648L4.28167 41.9159C4.27854 41.652 4.2742 41.4571 4.26865 41.3313C4.26758 41.2066 4.25777 40.996 4.23923 40.6994C4.2292 40.5724 4.19928 40.292 4.14946 39.8581C4.15529 39.8357 4.16999 39.8251 4.19355 39.8265C4.21264 39.8267 4.23563 39.8302 4.26251 39.8372L5.34457 40.1186C5.06087 39.7196 4.86427 39.3719 4.75477 39.0755C4.58497 38.6248 4.55541 38.1866 4.66609 37.7609C4.76745 37.3711 5.00189 37.0398 5.3694 36.767C5.73359 36.4886 6.23828 36.4333 6.88349 36.6011L10.3716 37.5081C10.7301 37.6013 10.9896 37.5875 11.1502 37.4666C11.252 37.3878 11.3605 37.1912 11.4757 36.8768L11.6639 36.9257L11.1414 38.9352Z" fill="#333333"/>
<path d="M3.18244 45.6085C3.21813 45.9693 3.2805 46.2095 3.36955 46.329C3.50549 46.513 3.77484 46.6031 4.17759 46.5995L7.76768 46.5668C8.11025 46.5637 8.33435 46.5153 8.43999 46.4218C8.54566 46.3329 8.59755 46.1842 8.59566 45.9759C8.59477 45.8787 8.58947 45.8047 8.57975 45.7538C8.57007 45.7076 8.55336 45.6522 8.52962 45.5876L8.77266 45.5854L8.94387 46.0839C9.0057 46.2639 9.11718 46.5592 9.27833 46.9697C9.43948 47.3803 9.52016 47.5972 9.52037 47.6203C9.52058 47.6435 9.50913 47.6575 9.48603 47.6623C9.46292 47.6671 9.41896 47.6699 9.35415 47.6705L8.4167 47.679C8.83752 48.1335 9.12814 48.5267 9.28857 48.8586C9.45364 49.1904 9.53777 49.5323 9.54097 49.8841C9.54531 50.3609 9.38673 50.742 9.06525 51.0273C8.89068 51.1771 8.65338 51.3019 8.35336 51.4019C8.70368 51.7413 8.96333 52.0376 9.1323 52.2907C9.42332 52.7278 9.57092 53.1756 9.57509 53.6339C9.58187 54.3792 9.28318 54.8796 8.679 55.1351C8.33774 55.2818 7.79675 55.3585 7.05605 55.3652L4.17426 55.3914C3.84558 55.3944 3.62171 55.4682 3.50265 55.6128C3.38826 55.762 3.31428 56.0266 3.2807 56.4065L3.10015 56.4082L3.07165 53.2764L3.26609 53.2746C3.30679 53.677 3.3902 53.9402 3.51633 54.064C3.64251 54.1925 3.89771 54.255 4.28195 54.2515L7.27484 54.2243C7.72389 54.2202 8.05445 54.1686 8.26652 54.0694C8.64457 53.8947 8.83132 53.5573 8.82677 53.0574C8.82403 52.7564 8.72178 52.4588 8.52002 52.1643C8.40273 51.9941 8.21564 51.7851 7.95875 51.5374L4.40338 51.5698C4.0284 51.5732 3.74429 51.6406 3.55103 51.772C3.35782 51.908 3.25621 52.189 3.2462 52.6151L3.06565 52.6167L3.03665 49.4294L3.21719 49.4277C3.27675 49.867 3.38577 50.1461 3.54426 50.2651C3.70276 50.384 4.08986 50.4407 4.70557 50.4351L6.64991 50.4174C7.36283 50.4109 7.85312 50.3601 8.12078 50.2651C8.57307 50.1082 8.79696 49.7821 8.79246 49.2867C8.78989 49.0043 8.70866 48.7273 8.54877 48.4556C8.39352 48.1838 8.18995 47.9449 7.93807 47.7389L4.13966 47.7735C3.78783 47.7767 3.54534 47.8391 3.41218 47.9606C3.27907 48.0869 3.21207 48.356 3.21119 48.7681L3.03064 48.7697L3.00189 45.6101L3.18244 45.6085Z" fill="#333333"/>
<path d="M12.993 66.8694C13.129 67.1788 13.1859 67.4926 13.1639 67.8107C13.1494 68.0193 13.0982 68.2365 13.0102 68.4623L15.032 67.574C15.2906 67.4604 15.4555 67.3525 15.5269 67.2503C15.6002 67.1524 15.5894 66.9953 15.4944 66.7792C15.472 66.7283 15.4504 66.6847 15.4294 66.6484C15.4084 66.6121 15.3627 66.5311 15.2922 66.4053L15.502 66.3131L15.8646 66.7758C15.9992 66.9442 16.136 67.1116 16.2749 67.2781C16.4138 67.4447 16.5404 67.5888 16.6546 67.7106C16.7056 67.7691 16.7952 67.8637 16.9234 67.9945L16.9275 68.0382L16.2543 68.3188C16.0109 68.4207 15.7589 68.5263 15.4985 68.6357C15.2423 68.7432 14.9892 68.8519 14.7391 68.9618L9.53929 71.2313C9.26379 71.3523 9.08583 71.471 9.00543 71.5872C8.92503 71.7034 8.94907 71.9078 9.07757 72.2002C9.09806 72.2469 9.11854 72.2935 9.13903 72.3401C9.16375 72.3849 9.19059 72.4287 9.21956 72.4716L9.00975 72.5638C8.9901 72.5421 8.74912 72.2813 8.28682 71.7816L7.47314 70.9482L7.5108 70.8786L8.29281 70.535C7.92997 70.4112 7.65527 70.2867 7.46872 70.1613C7.14204 69.9357 6.88931 69.6195 6.71053 69.2126C6.39394 68.492 6.41457 67.7851 6.77241 67.0919C7.13635 66.401 7.68495 65.8945 8.4182 65.5723C9.33796 65.1682 10.2436 65.0889 11.1353 65.3343C12.033 65.582 12.6522 66.0937 12.993 66.8694ZM7.65416 69.4958C7.79942 69.8264 8.01423 70.0506 8.29859 70.1684C8.58295 70.2861 8.81202 70.3069 8.9858 70.2305L11.7133 69.0321C12.2643 68.79 12.5869 68.4713 12.6812 68.0759C12.7816 67.6829 12.7703 67.3465 12.6474 67.0667C12.4127 66.5327 11.9929 66.2216 11.3878 66.1335C10.787 66.0435 10.1411 66.1503 9.45026 66.4539C8.76786 66.7537 8.22854 67.1777 7.8323 67.726C7.43792 68.2786 7.37854 68.8685 7.65416 69.4958Z" fill="#333333"/>
<path d="M12.9455 74.1701C13.6886 73.6255 14.4883 73.401 15.3447 73.4965C16.2076 73.593 16.9113 74.0128 17.456 74.7559C17.9978 75.4952 18.204 76.2855 18.0743 77.1267C17.9447 77.9679 17.4766 78.6841 16.6701 79.2752C15.927 79.8199 15.1086 80.0581 14.2148 79.9899C13.3211 79.9217 12.6006 79.5143 12.0532 78.7675C11.5277 78.0505 11.3463 77.2508 11.5088 76.3683C11.6713 75.4858 12.1502 74.7531 12.9455 74.1701ZM17.0049 74.8454C16.7887 74.5504 16.5042 74.3658 16.1513 74.2915C15.5378 74.1672 14.8147 74.4101 13.982 75.0205C13.3174 75.5076 12.807 76.1113 12.4509 76.8315C12.0976 77.5554 12.1166 78.1843 12.5079 78.7183C12.8145 79.1365 13.2421 79.3167 13.7909 79.2588C14.3425 79.2047 14.93 78.9491 15.5536 78.4921C16.1996 78.0186 16.7029 77.4288 17.0634 76.7225C17.424 76.0163 17.4045 75.3906 17.0049 74.8454Z" fill="#333333"/>
<path d="M16.9318 83.9026C17.2747 84.1663 17.5462 84.303 17.7464 84.3126C17.9496 84.3189 18.1825 84.1818 18.445 83.9011L23.0792 78.9458C23.2879 78.7226 23.4132 78.5514 23.4551 78.4321C23.5203 78.2268 23.4497 78.0277 23.2435 77.8348C23.1961 77.7906 23.139 77.7466 23.072 77.703C23.0084 77.6626 22.9249 77.6129 22.8214 77.5542L22.9779 77.3868C23.5482 77.692 24.2495 78.0435 25.0816 78.4415C25.1053 78.4636 25.1093 78.4864 25.0938 78.5099C25.0815 78.5365 25.0438 78.5836 24.9806 78.6512L19.2933 84.7325C19.0182 85.0267 18.8903 85.2652 18.9095 85.4479C18.9319 85.6273 19.0909 85.8775 19.3866 86.1984L19.2538 86.3404L16.799 84.0447L16.9318 83.9026Z" fill="#333333"/>
<path d="M24.1191 86.2399C24.6128 85.462 25.2758 84.9617 26.1082 84.7388C26.947 84.5144 27.7553 84.6491 28.5331 85.1428C29.307 85.634 29.7868 86.295 29.9724 87.1256C30.158 87.9563 29.9829 88.7937 29.447 89.638C28.9533 90.4159 28.2779 90.9358 27.4207 91.1978C26.5635 91.4597 25.744 91.3426 24.9623 90.8465C24.2118 90.3701 23.7515 89.6914 23.5815 88.8103C23.4114 87.9292 23.5906 87.0724 24.1191 86.2399ZM28.1457 85.3904C27.8369 85.1944 27.5046 85.1261 27.1489 85.1855C26.5323 85.2931 25.9473 85.7827 25.3941 86.6543C24.9525 87.3501 24.697 88.0982 24.6276 88.8986C24.5622 89.7015 24.8089 90.2803 25.3679 90.6351C25.8057 90.9129 26.2696 90.925 26.7596 90.6713C27.2536 90.42 27.7077 89.968 28.122 89.3152C28.5512 88.639 28.8051 87.9064 28.8838 87.1173C28.9624 86.3283 28.7163 85.7526 28.1457 85.3904Z" fill="#333333"/>
<path d="M31.1771 93.7526C31.5873 93.8732 31.8773 93.907 32.0471 93.8541C32.2186 93.7969 32.3718 93.5958 32.5066 93.2509L33.6472 90.3341C33.8141 89.9072 33.892 89.5872 33.8809 89.3741C33.8758 89.1584 33.7676 89.0092 33.5563 88.9266C33.5132 88.9097 33.4525 88.8934 33.3741 88.8777C33.3018 88.8593 33.2234 88.8436 33.1391 88.8305L33.2225 88.6171C33.502 88.6269 33.7888 88.6372 34.0829 88.6478C34.377 88.6584 34.5812 88.6637 34.6956 88.6637C34.9432 88.6661 35.2015 88.6602 35.4705 88.6461C35.5007 88.6579 35.5137 88.6754 35.5096 88.6986C35.5098 88.7236 35.4964 88.7705 35.4694 88.8395L35.0546 89.9002C35.4806 89.6243 35.863 89.4284 36.2017 89.3123C36.5447 89.1978 36.8541 89.1946 37.1301 89.3025C37.35 89.3885 37.5028 89.5253 37.5885 89.7129C37.6759 89.8962 37.6808 90.087 37.6033 90.2853C37.5341 90.4621 37.4221 90.5898 37.2671 90.6684C37.1164 90.7486 36.9613 90.7576 36.8017 90.6952C36.6379 90.6311 36.5014 90.4908 36.3923 90.2741C36.2874 90.0591 36.1876 89.9331 36.0927 89.896C35.9418 89.837 35.7084 89.8874 35.3924 90.0472C35.0781 90.2026 34.8703 90.4097 34.7692 90.6684L33.6286 93.5852C33.4836 93.956 33.4687 94.2485 33.5838 94.4625C33.7006 94.6722 33.9612 94.8512 34.3656 94.9993L34.2821 95.2128L31.0937 93.966L31.1771 93.7526Z" fill="#333333"/>
<path d="M45.9854 95.7052L46.2142 95.717C46.2934 96.2495 46.416 96.6615 46.5818 96.9528C46.8788 97.4873 47.3393 97.7706 47.9635 97.8027C48.3103 97.8205 48.5879 97.7398 48.7965 97.5604C49.0099 97.3767 49.1245 97.1323 49.1402 96.8271C49.1502 96.633 49.102 96.4427 48.9957 96.2565C48.8894 96.0702 48.695 95.884 48.4125 95.698L47.6586 95.2142C47.1056 94.8798 46.703 94.5508 46.4508 94.2272C46.1986 93.9036 46.0833 93.5315 46.105 93.1107C46.1316 92.5929 46.3384 92.1771 46.7255 91.8632C47.1125 91.5494 47.5857 91.4068 48.1451 91.4356C48.3902 91.4482 48.6559 91.5083 48.9425 91.6157C49.2336 91.7234 49.3977 91.7782 49.4347 91.7801C49.5179 91.7844 49.5786 91.7759 49.6168 91.7547C49.6549 91.7335 49.6892 91.6982 49.7196 91.6488L49.886 91.6573L49.835 93.5947L49.62 93.5837C49.5506 93.1304 49.4437 92.7749 49.2994 92.5172C49.0365 92.0401 48.6346 91.7876 48.0937 91.7598C47.77 91.7431 47.5106 91.8295 47.3155 92.0187C47.1203 92.208 47.0158 92.4368 47.002 92.7049C46.9801 93.1303 47.2796 93.5258 47.9005 93.8915L48.7906 94.431C49.7478 95.018 50.2081 95.6675 50.1715 96.3796C50.1434 96.9251 49.9147 97.3607 49.4854 97.6863C49.0607 98.0121 48.5177 98.158 47.8566 98.124C47.5792 98.1097 47.2671 98.0473 46.9205 97.9367C46.5739 97.8262 46.3682 97.7693 46.3035 97.7659C46.248 97.7631 46.1984 97.7814 46.1546 97.8208C46.1111 97.8557 46.0764 97.9003 46.0504 97.9546L45.8701 97.9453L45.9854 95.7052Z" fill="#333333"/>
<path d="M54.3294 88.9252C54.3051 88.7276 54.3532 88.5491 54.4735 88.3898C54.5939 88.2304 54.7552 88.1383 54.9574 88.1135C55.155 88.0892 55.3314 88.1399 55.4868 88.2654C55.6461 88.3858 55.7382 88.5471 55.763 88.7493C55.7873 88.9468 55.7369 89.1256 55.612 89.2855C55.491 89.4403 55.3318 89.5298 55.1342 89.5541C54.932 89.5789 54.7535 89.5308 54.5987 89.4099C54.4434 89.2843 54.3536 89.1228 54.3294 88.9252ZM54.5154 97.7389C55.0015 97.6326 55.3015 97.5118 55.4155 97.3765C55.5289 97.2367 55.5526 96.898 55.4867 96.3603L55.0832 93.0725C55.0465 92.7738 55.0005 92.5696 54.945 92.4598C54.853 92.2799 54.6967 92.2034 54.4761 92.2305C54.4256 92.2367 54.3756 92.2475 54.3262 92.2629C54.2813 92.2777 54.148 92.3314 53.9261 92.4239L53.8999 92.2103L54.1845 92.0774C54.9565 91.7168 55.4928 91.4504 55.7935 91.2782C55.9154 91.2073 55.9947 91.1696 56.0315 91.1651C56.0446 91.1961 56.0535 91.23 56.058 91.2668L56.6653 96.2157C56.7296 96.7395 56.8319 97.0605 56.9724 97.1785C57.1174 97.296 57.415 97.3457 57.8652 97.3278L57.8889 97.5208L54.5391 97.9319L54.5154 97.7389Z" fill="#333333"/>
<path d="M63.2327 89.6831L63.3691 90.1641L62.0062 90.5506L63.0842 94.4026C63.1802 94.7411 63.2818 94.989 63.389 95.1463C63.583 95.4233 63.8359 95.5176 64.1477 95.4291C64.308 95.3837 64.4354 95.3066 64.5297 95.1981C64.6285 95.0883 64.7302 94.9295 64.8349 94.7217L65.0503 94.8195L64.9602 95.0616C64.817 95.439 64.6345 95.729 64.4129 95.9314C64.1912 96.1338 63.9601 96.2691 63.7195 96.3374C63.194 96.4864 62.7714 96.3536 62.4517 95.939C62.2772 95.7142 62.1262 95.3769 61.9986 94.927L60.8504 90.8784L60.1222 91.0849C60.0961 91.0779 60.0745 91.0696 60.0574 91.06C60.0447 91.0492 60.0352 91.0326 60.0289 91.0104C60.0162 90.9658 60.0157 90.9299 60.0272 90.9026C60.0419 90.8695 60.09 90.7933 60.1717 90.6739C60.407 90.3329 60.5693 90.0655 60.6587 89.8717C60.7513 89.6722 60.9533 89.1626 61.2646 88.3428C61.3225 88.3264 61.3571 88.3214 61.3686 88.3278C61.3845 88.3329 61.4006 88.3644 61.417 88.4223L61.8831 90.0658L63.2327 89.6831Z" fill="#333333"/>
<path d="M75.7715 86.1941C75.4304 86.6391 75.1762 87.0473 75.009 87.4188C74.6898 88.1345 74.6774 88.7086 74.9718 89.1411C75.2089 89.4893 75.4982 89.6676 75.8399 89.6758C76.0621 89.6814 76.265 89.6216 76.4487 89.4966C76.7013 89.3246 76.8942 89.0897 77.0274 88.7918C77.1645 88.4913 77.1587 88.232 77.0102 88.0138L75.7715 86.1941ZM74.2196 90.2328C73.8419 89.6778 73.8041 89.0259 74.1063 88.2769C74.3021 87.8076 74.792 87.0177 75.5761 85.9071L75.2439 85.4191C74.9782 85.0288 74.7549 84.7831 74.5742 84.6821C74.2695 84.5143 73.9125 84.5698 73.503 84.8485C73.3078 84.9814 73.156 85.1575 73.0477 85.3768C72.942 85.6 72.9504 85.8015 73.0729 85.9814C73.1041 86.0273 73.1671 86.0992 73.2618 86.1972C73.3539 86.2913 73.4103 86.3537 73.4312 86.3843C73.5771 86.5986 73.6079 86.7961 73.5236 86.9767C73.4771 87.0811 73.3983 87.1711 73.2874 87.2467C73.1151 87.3639 72.9453 87.3983 72.7779 87.3498C72.6079 87.2976 72.476 87.2025 72.3822 87.0648C72.1999 86.7969 72.1743 86.4055 72.3054 85.8906C72.4377 85.3692 72.8235 84.891 73.4626 84.456C74.205 83.9506 74.8724 83.8491 75.4647 84.1515C75.7861 84.3192 76.1187 84.6556 76.4626 85.1608L78.0296 87.4627C78.1807 87.6847 78.3002 87.8273 78.3881 87.8907C78.5395 88.0061 78.6936 88.0104 78.8505 87.9035C78.9386 87.8436 79.0021 87.7807 79.0413 87.7149C79.0805 87.649 79.1357 87.5162 79.207 87.3165L79.4102 87.615C79.3893 87.8476 79.3406 88.0599 79.2642 88.252C79.1489 88.5433 78.9802 88.7645 78.7582 88.9156C78.498 89.0928 78.2513 89.1376 78.018 89.0499C77.7886 88.9597 77.5886 88.8018 77.4182 88.5761C77.2993 89.0267 77.1782 89.3836 77.0549 89.6467C76.8474 90.0905 76.5867 90.4191 76.2729 90.6328C75.9437 90.8568 75.5805 90.9361 75.1831 90.8706C74.783 90.8013 74.4619 90.5887 74.2196 90.2328Z" fill="#333333"/>
<path d="M82.6821 85.7047C82.8947 85.411 83.0073 85.1899 83.02 85.0414C83.0403 84.8135 82.8985 84.5674 82.5946 84.303L79.8861 81.9464C79.6277 81.7215 79.4279 81.6091 79.2868 81.609C79.1487 81.6055 79.0113 81.6823 78.8745 81.8395C78.8107 81.9128 78.7656 81.9717 78.7392 82.0162C78.7158 82.0572 78.6915 82.1098 78.6664 82.1739L78.4831 82.0143L78.6855 81.5277C78.7586 81.352 78.8711 81.0571 79.0228 80.6429C79.1745 80.2288 79.2579 80.013 79.2731 79.9955C79.2883 79.978 79.3062 79.9751 79.3267 79.9868C79.3472 79.9985 79.3819 80.0257 79.4308 80.0682L80.138 80.6836C80.1245 80.0643 80.1678 79.5773 80.2679 79.2225C80.3644 78.8647 80.5282 78.553 80.7591 78.2876C81.0721 77.9279 81.4436 77.7478 81.8734 77.7475C82.1034 77.7512 82.3638 77.8152 82.6546 77.9394C82.6175 77.453 82.6197 77.0591 82.6611 76.7576C82.7333 76.2374 82.9198 75.8044 83.2206 75.4586C83.7099 74.8963 84.2653 74.7199 84.8869 74.9294C85.2396 75.046 85.6953 75.3474 86.2541 75.8336L88.4283 77.7253C88.6763 77.9411 88.8928 78.0343 89.0778 78.0051C89.2623 77.9693 89.4932 77.8203 89.7703 77.5582L89.9065 77.6768L87.8507 80.0395L87.704 79.9119C87.9405 79.5837 88.0526 79.3314 88.0403 79.1551C88.0311 78.9753 87.8815 78.7592 87.5917 78.507L85.3337 76.5424C84.9949 76.2476 84.7133 76.067 84.4888 76.0006C84.09 75.8806 83.7265 76.0092 83.3983 76.3864C83.2007 76.6134 83.0798 76.904 83.0355 77.2582C83.0104 77.4634 83.0118 77.7439 83.0398 78.0996L85.7221 80.4335C86.005 80.6796 86.2624 80.8176 86.4942 80.8475C86.729 80.8738 86.9914 80.7309 87.2815 80.4187L87.4177 80.5372L85.3254 82.9419L85.1892 82.8233C85.436 82.4551 85.5395 82.1739 85.4998 81.9797C85.46 81.7856 85.2079 81.4865 84.7434 81.0823L83.2765 79.806C82.7386 79.338 82.338 79.0508 82.0747 78.9444C81.6321 78.7618 81.2483 78.8574 80.9231 79.2311C80.7377 79.4442 80.6148 79.7054 80.5542 80.0148C80.4902 80.3211 80.4841 80.6349 80.536 80.9562L83.4016 83.4496C83.6671 83.6805 83.8899 83.7947 84.0702 83.792C84.2536 83.7858 84.4822 83.6288 84.7562 83.321L84.8924 83.4395L82.8184 85.8232L82.6821 85.7047Z" fill="#333333"/>
<path d="M87.2708 68.733C87.56 68.1478 88.0166 67.7357 88.6408 67.4968C89.2608 67.2558 89.9422 67.3188 90.6852 67.686L88.7316 71.6393C89.715 72.0736 90.5241 72.2023 91.1589 72.0254C91.7937 71.8486 92.2444 71.4903 92.511 70.9508C92.7264 70.515 92.7938 70.0913 92.7132 69.6796C92.6326 69.268 92.4452 68.832 92.1511 68.3717L92.3335 68.1907C92.7765 68.6213 93.1063 69.1819 93.3228 69.8724C93.5413 70.5588 93.4834 71.2402 93.1491 71.9168C92.7635 72.697 92.1704 73.1553 91.3698 73.2916C90.5712 73.4237 89.788 73.3 89.0202 72.9206C88.1859 72.5083 87.5879 71.9055 87.226 71.1121C86.8641 70.3188 86.879 69.5257 87.2708 68.733ZM87.5468 69.3187C87.313 69.7918 87.3441 70.2565 87.6403 70.7127C87.7988 70.9563 88.0338 71.1912 88.3454 71.4175L89.6437 68.7902C89.2061 68.6308 88.858 68.5568 88.5992 68.5684C88.1335 68.5913 87.7827 68.8414 87.5468 69.3187Z" fill="#333333"/>
<path d="M90.4595 60.4092L90.9401 60.5469L90.55 61.9088L94.3914 63.0238C94.7296 63.1207 94.9938 63.1651 95.184 63.157C95.5216 63.1381 95.7351 62.9729 95.8244 62.6614C95.8703 62.5012 95.872 62.3524 95.8295 62.215C95.7882 62.0732 95.707 61.903 95.5856 61.7045L95.7822 61.573L95.9404 61.7772C96.1857 62.0979 96.3358 62.4058 96.3909 62.7009C96.4461 62.996 96.4392 63.2638 96.3703 63.5041C96.2199 64.0292 95.8842 64.3183 95.3634 64.3714C95.0804 64.4011 94.7141 64.3515 94.2646 64.2227L90.2191 63.0637L90.0106 63.7914C89.9909 63.8098 89.9724 63.8238 89.9552 63.8333C89.9393 63.8384 89.9203 63.8377 89.898 63.8314C89.8535 63.8186 89.8227 63.8001 89.8055 63.776C89.7852 63.7461 89.7458 63.6649 89.6874 63.5326C89.5217 63.1529 89.3801 62.8739 89.2626 62.6958C89.1419 62.5119 88.8154 62.0716 88.283 61.3749C88.2995 61.317 88.3136 61.2849 88.325 61.2786C88.3377 61.2678 88.373 61.2707 88.4309 61.2872L90.0731 61.7577L90.4595 60.4092Z" fill="#333333"/>
<path d="M97.6966 55.0791C98.1602 55.1403 98.5695 55.3648 98.9246 55.7525C99.2797 56.1403 99.519 56.5384 99.6425 56.947L99.3499 57.0415C99.1602 56.5681 98.9317 56.2298 98.6643 56.0264C98.3976 55.8184 98.1678 55.7017 97.975 55.6763C97.9108 55.6678 97.8667 55.683 97.8429 55.7219C97.8191 55.7607 97.8042 55.8031 97.7981 55.849L97.7854 56.3167C97.76 56.5094 97.6747 56.678 97.5296 56.8223C97.3799 56.9659 97.1857 57.022 96.947 56.9905C96.7634 56.9663 96.5932 56.8761 96.4364 56.72C96.2795 56.5639 96.2211 56.3344 96.2611 56.0314C96.2992 55.7423 96.4482 55.4981 96.708 55.2989C96.9632 55.0991 97.2927 55.0258 97.6966 55.0791Z" fill="#333333"/>
<path d="M90.7385 42.8287C90.6328 42.2598 90.6898 41.743 90.9096 41.2784C91.1239 40.81 91.4063 40.5433 91.7568 40.4782C91.907 40.4503 92.0578 40.4764 92.2093 40.5566C92.3562 40.6376 92.4499 40.7873 92.4905 41.0058C92.5201 41.1651 92.4917 41.3164 92.4053 41.4596C92.318 41.5982 92.1748 41.7143 91.9756 41.8078L91.6631 41.9506C91.4328 42.0546 91.2812 42.1887 91.2081 42.353C91.1404 42.521 91.1294 42.7278 91.1751 42.9736C91.2715 43.4925 91.5807 43.8895 92.1027 44.1645C92.6192 44.4358 93.253 44.5017 94.0041 44.3621C94.6914 44.2344 95.2718 43.9241 95.7452 43.4312C96.2179 42.9337 96.392 42.3504 96.2677 41.6813C96.1797 41.208 95.9468 40.8157 95.5688 40.5045C95.3523 40.3281 95.0262 40.1439 94.5902 39.9517L94.6708 39.739C95.2652 39.897 95.7483 40.0897 96.1202 40.3173C96.8325 40.7547 97.2558 41.3353 97.3903 42.059C97.5222 42.7691 97.359 43.4492 96.9006 44.0994C96.4422 44.7497 95.7329 45.164 94.7725 45.3424C93.8303 45.5175 92.9647 45.3699 92.1757 44.8996C91.3867 44.4294 90.9076 43.7391 90.7385 42.8287Z" fill="#333333"/>
<path d="M92.6134 36.4596C91.7634 36.8148 90.9333 36.8456 90.1232 36.5519C89.307 36.2557 88.7213 35.6825 88.3661 34.8325C88.0127 33.9867 87.9977 33.1701 88.321 32.3828C88.6443 31.5954 89.2672 31.009 90.1899 30.6234C91.04 30.2683 91.8914 30.2286 92.7443 30.5045C93.5971 30.7803 94.202 31.3454 94.559 32.1998C94.9017 33.0199 94.8905 33.8399 94.5256 34.6597C94.1607 35.4795 93.5233 36.0795 92.6134 36.4596ZM88.8256 34.8512C88.9666 35.1887 89.1999 35.4349 89.5255 35.5899C90.0927 35.8546 90.8526 35.788 91.8052 35.3899C92.5656 35.0722 93.2033 34.6051 93.7183 33.9885C94.2316 33.3676 94.3606 32.7518 94.1054 32.1409C93.9055 31.6625 93.532 31.387 92.9849 31.3146C92.4361 31.2378 91.8049 31.3485 91.0916 31.6466C90.3526 31.9554 89.725 32.4107 89.2089 33.0127C88.6927 33.6147 88.565 34.2276 88.8256 34.8512Z" fill="#333333"/>
<path d="M91.0866 26.0146C90.8631 25.77 90.6648 25.6295 90.4917 25.5929C90.3122 25.5552 90.0484 25.6591 89.7004 25.9046L86.8233 27.934C86.5811 28.1047 86.4269 28.2475 86.3606 28.3623C86.2675 28.5356 86.2997 28.7338 86.4571 28.957C86.4811 28.9911 86.5084 29.0257 86.5388 29.0608C86.5666 29.0922 86.603 29.1317 86.6479 29.1794L86.4493 29.3194C86.2945 29.1964 85.9184 28.9121 85.321 28.4667L84.7688 28.0573C84.7501 28.0309 84.7489 28.0091 84.7652 27.9919C84.7787 27.971 84.8025 27.9486 84.8366 27.9245L85.6708 27.3362C85.0999 27.2176 84.6846 27.1026 84.4248 26.9913C84.0313 26.827 83.7224 26.5859 83.4983 26.2681C83.3169 26.0109 83.2252 25.7243 83.2233 25.4083C83.2226 24.797 83.5912 24.2311 84.3289 23.7108L86.979 21.8415C87.2514 21.6494 87.4094 21.4558 87.4531 21.2607C87.4968 21.0656 87.4298 20.8381 87.2521 20.5782L87.411 20.4661L89.1201 22.8892L88.9612 23.0013C88.7286 22.7518 88.5169 22.6122 88.326 22.5826C88.1313 22.5556 87.8411 22.6782 87.4552 22.9504L85.032 24.6595C84.7067 24.8889 84.4808 25.1389 84.3543 25.4094C84.224 25.6826 84.2737 25.9818 84.5031 26.3072C84.6606 26.5304 84.8963 26.704 85.2104 26.8281C85.3882 26.8953 85.6493 26.9604 85.994 27.0233L89.1718 24.7818C89.4442 24.5897 89.585 24.3997 89.5942 24.212C89.5996 24.0268 89.514 23.8011 89.3375 23.5347L89.4964 23.4227L91.2455 25.9025L91.0866 26.0146Z" fill="#333333"/>
<path d="M83.0719 18.9784L82.9044 18.822C83.1866 18.3635 83.3581 17.9694 83.4187 17.6398C83.5355 17.0396 83.3655 16.5263 82.9086 16.0999C82.6547 15.863 82.3902 15.746 82.1152 15.749C81.8336 15.7522 81.5886 15.8655 81.3801 16.0888C81.2475 16.231 81.1619 16.4076 81.1233 16.6185C81.0847 16.8295 81.1136 17.0971 81.21 17.4213L81.4754 18.2769C81.6833 18.8888 81.7795 19.3997 81.7642 19.8097C81.7489 20.2197 81.5975 20.5787 81.3101 20.8867C80.9564 21.2658 80.5304 21.4508 80.0322 21.4418C79.534 21.4329 79.0801 21.2373 78.6706 20.8551C78.4912 20.6877 78.3264 20.4706 78.1764 20.204C78.0229 19.9341 77.9327 19.7866 77.9056 19.7613C77.8447 19.7044 77.7928 19.6718 77.7499 19.6635C77.707 19.6551 77.6581 19.6601 77.603 19.6784L77.4812 19.5647L78.7675 18.115L78.9249 18.2619C78.6862 18.6534 78.5391 18.9942 78.4836 19.2844C78.3776 19.8187 78.5226 20.2706 78.9186 20.6401C79.1556 20.8612 79.4096 20.9622 79.6808 20.943C79.952 20.9238 80.1793 20.816 80.3624 20.6197C80.653 20.3083 80.6785 19.8128 80.4388 19.1333L80.105 18.1474C79.7505 17.082 79.8164 16.2887 80.3028 15.7674C80.6755 15.368 81.131 15.1819 81.6691 15.2092C82.2038 15.2333 82.7132 15.4712 83.1972 15.9229C83.4003 16.1124 83.5989 16.361 83.793 16.6687C83.987 16.9765 84.1078 17.1525 84.1551 17.1967C84.1958 17.2346 84.2455 17.2525 84.3044 17.2505C84.3601 17.2518 84.4154 17.2401 84.4702 17.2153L84.6022 17.3385L83.0719 18.9784Z" fill="#333333"/>
<path d="M26.8524 9.6177C26.5146 9.87976 26.3175 10.0951 26.261 10.2638C26.2071 10.4363 26.2805 10.6782 26.4813 10.9894L28.1795 13.621C28.428 14.0061 28.6419 14.2565 28.8212 14.3722C28.9992 14.4943 29.1835 14.4938 29.3741 14.3708C29.413 14.3457 29.4617 14.306 29.5203 14.2516C29.5776 14.2037 29.6362 14.1493 29.6961 14.0886L29.8204 14.2812C29.6489 14.502 29.4728 14.7286 29.2921 14.9609C29.1114 15.1932 28.9876 15.3558 28.9207 15.4485C28.7739 15.6479 28.6276 15.8608 28.4816 16.0872C28.4544 16.1048 28.4326 16.1051 28.4161 16.0882C28.3958 16.0737 28.3656 16.0354 28.3254 15.9732L27.7079 15.0162C27.6823 15.5231 27.6176 15.9478 27.5136 16.2904C27.4057 16.6355 27.2272 16.8884 26.9783 17.0491C26.7799 17.1771 26.5796 17.221 26.3773 17.1807C26.1775 17.1443 26.0198 17.0367 25.9044 16.8577C25.8015 16.6982 25.7635 16.5327 25.7904 16.361C25.8135 16.1918 25.897 16.0608 26.041 15.9679C26.1888 15.8725 26.3825 15.844 26.622 15.8822C26.8577 15.923 27.0183 15.9158 27.1039 15.8605C27.2401 15.7727 27.3358 15.5539 27.3911 15.2041C27.4489 14.8583 27.4025 14.5686 27.2519 14.3352L25.5538 11.7037C25.3379 11.3691 25.1095 11.1859 24.8685 11.1541C24.6301 11.1261 24.3325 11.2328 23.9758 11.474L23.8515 11.2814L26.7282 9.42515L26.8524 9.6177Z" fill="#333333"/>
<g clip-path="url(#clip0_872_658)">
<path d="M51 60.35L49.55 59.03C44.4 54.36 41 51.28 41 47.5C41 44.42 43.42 42 46.5 42C48.24 42 49.91 42.81 51 44.09C52.09 42.81 53.76 42 55.5 42C58.58 42 61 44.42 61 47.5C61 51.28 57.6 54.36 52.45 59.04L51 60.35Z" fill="#333333"/>
</g>
<defs>
<clipPath id="clip0_872_658">
<rect width="24" height="24" fill="white" transform="translate(38.9998 39)"/>
</clipPath>
</defs>
</svg>
