<svg width="384" height="403" viewBox="0 0 384 403" fill="none" xmlns="http://www.w3.org/2000/svg">
<path d="M102.547 115.531C101.379 116.089 100.23 116.732 99.1154 117.457C90.202 123.251 85.3713 133.053 84.4558 143.442C83.5403 153.831 86.3237 165.1 92.8057 175.225C99.2906 185.35 108.33 192.548 118.102 195.989C127.876 199.432 138.735 199.042 147.648 193.248C156.561 187.454 161.392 177.652 162.308 167.262C163.223 156.873 160.44 145.604 153.958 135.479C147.473 125.354 138.432 118.152 128.658 114.709C120.107 111.698 110.73 111.621 102.547 115.531L102.547 115.531ZM185.643 74.8411C177.531 78.9103 171.595 86.4919 168.346 95.2824C164.632 105.33 164.152 117.189 167.465 128.865C170.776 140.545 177.295 149.982 185.534 155.889C193.771 161.797 204.079 164.188 214.044 160.735C224.01 157.284 231.243 148.822 234.957 138.776C238.67 128.729 239.147 116.863 235.835 105.187C232.524 93.5072 226.004 84.0699 217.765 78.1628C209.529 72.2552 199.221 69.8641 189.255 73.3172C188.008 73.7484 186.801 74.2599 185.643 74.8415L185.643 74.8411ZM51.069 208.226C46.4802 210.672 42.508 214.063 39.5994 218.42C33.7845 227.135 33.6165 237.599 37.4049 246.937C41.1927 256.274 48.8682 264.827 59.5175 270.849C70.1687 276.871 81.9204 279.303 92.6835 278.192C103.447 277.08 113.512 272.21 119.328 263.497C125.143 254.783 125.311 244.319 121.523 234.981C117.735 225.644 110.062 217.096 99.4125 211.074C88.7613 205.053 77.003 202.623 66.2404 203.734C60.8605 204.291 55.6592 205.781 51.0703 208.227L51.069 208.226ZM286.83 92.778C282.094 94.8961 277.664 98.1165 273.814 102.083C266.114 110.012 260.395 121.008 258.019 133.406C255.643 145.806 257.034 157.428 261.489 166.44C265.944 175.449 273.759 182.007 283.895 182.91C294.03 183.814 304.059 178.842 311.759 170.913C319.459 162.983 325.174 151.997 327.549 139.597C329.925 127.197 328.54 115.572 324.085 106.56C319.63 97.5503 311.809 90.996 301.673 90.0924C296.604 89.6412 291.565 90.658 286.829 92.7759L286.83 92.778ZM181.527 178.499C130.255 203.607 109.613 268.578 134.132 323.156C140.262 336.801 146.366 344.22 154.814 345.712C159.038 346.459 163.364 345.375 167.204 343.417C171.044 341.459 174.603 338.667 178.237 335.403C192.768 322.353 209.092 301.269 231.713 290.192C254.33 279.117 280.305 279.487 299.205 276.167C303.93 275.338 308.265 274.265 312.161 272.434C316.058 270.603 319.621 267.824 321.773 263.956C326.076 256.219 324.514 246.576 318.384 232.931C293.864 178.351 232.81 153.387 181.533 178.497L181.527 178.499Z" fill="white" fill-opacity="0.15"/>
</svg>
