<svg width="246" height="233" viewBox="0 0 246 233" fill="none" xmlns="http://www.w3.org/2000/svg">
<path d="M123 1.85659L150.572 44.9873L150.987 45.6352L151.719 45.4013L201.478 29.5162L193.96 79.6517L193.842 80.4443L194.589 80.7329L243.201 99.4949L204.164 133.204L203.549 133.736L203.944 134.447L228.715 179.049L176.373 180.59L175.59 180.613L175.425 181.38L164.764 231.012L123.607 199.605L123 199.142L122.393 199.605L81.2361 231.012L70.5749 181.38L70.4103 180.613L69.6267 180.59L17.285 179.049L42.0564 134.447L42.4512 133.736L41.8358 133.204L2.79912 99.4949L51.4107 80.7329L52.1584 80.4443L52.0396 79.6517L44.5217 29.5162L94.2808 45.4013L95.0134 45.6352L95.4275 44.9873L123 1.85659Z" stroke="#333333" stroke-width="2"/>
</svg>
