<svg width="32" height="32" viewBox="0 0 32 32" fill="none" xmlns="http://www.w3.org/2000/svg">
<g clip-path="url(#clip0_876_973)">
<path d="M9.01325 6.4534L6.61325 4.06673L4.73325 5.94673L7.11992 8.3334L9.01325 6.4534ZM5.33325 14.0001H1.33325V16.6667H5.33325V14.0001ZM17.3333 0.733398H14.6666V4.66673H17.3333V0.733398ZM27.2666 5.94673L25.3866 4.06673L22.9999 6.4534L24.8799 8.3334L27.2666 5.94673ZM22.9866 24.2134L25.3733 26.6134L27.2533 24.7334L24.8533 22.3467L22.9866 24.2134ZM26.6666 14.0001V16.6667H30.6666V14.0001H26.6666ZM15.9999 7.3334C11.5866 7.3334 7.99992 10.9201 7.99992 15.3334C7.99992 19.7467 11.5866 23.3334 15.9999 23.3334C20.4132 23.3334 23.9999 19.7467 23.9999 15.3334C23.9999 10.9201 20.4132 7.3334 15.9999 7.3334ZM14.6666 29.9334H17.3333V26.0001H14.6666V29.9334ZM4.73325 24.7201L6.61325 26.6001L8.99992 24.2001L7.11992 22.3201L4.73325 24.7201Z" fill="#333333"/>
</g>
<defs>
<clipPath id="clip0_876_973">
<rect width="32" height="32" fill="white"/>
</clipPath>
</defs>
</svg>
