<svg width="359" height="22" viewBox="0 0 359 22" fill="none" xmlns="http://www.w3.org/2000/svg">
<path d="M2 2C19.7562 2 19.7562 20 37.5125 20C55.2687 20 55.2687 2 73.025 2C90.7812 2 90.7812 20 108.496 20C126.253 20 126.253 2 143.967 2C161.723 2 161.723 20 179.438 20C197.194 20 197.194 2 214.949 2C232.706 2 232.706 20 250.463 20C268.218 20 268.218 2 285.975 2C303.731 2 303.731 20 321.488 20C339.243 20 339.243 2 357 2" stroke="#4F4F4F" stroke-width="3" stroke-miterlimit="10" stroke-linecap="round"/>
</svg>
